<svg width="259" height="259" viewBox="0 0 259 259" fill="none" xmlns="http://www.w3.org/2000/svg">
<path fill-rule="evenodd" clip-rule="evenodd" d="M102.784 26.306L76.3181 52.612L88.9971 65.146C95.9711 72.04 101.677 77.787 101.677 77.918C101.677 78.049 90.2291 78.159 76.2381 78.163L50.8001 78.17L25.4411 103.713C11.4931 117.762 0.0450522 129.352 5.21707e-05 129.469C-0.0449478 129.587 29.0271 158.779 64.6031 194.341L129.288 258.999L193.951 194.335C229.516 158.77 258.615 129.575 258.615 129.457C258.615 129.254 186.998 57.533 147.743 18.424L129.25 0L102.784 26.306ZM130.835 73.005C139.032 99.993 156.336 119.498 179.827 128.226C181.68 128.914 182.962 129.547 182.697 129.641C182.434 129.735 181.142 130.192 179.827 130.656C156.366 138.929 138.366 159.844 130.06 188.482C129.27 191.207 129.139 191.154 128.174 187.726C120.638 160.93 103.234 140.488 79.8271 130.939C76.0551 129.401 76.076 129.48 79.108 128.262C103.754 118.366 122.854 95.567 128.932 68.789C129.208 67.573 129.139 67.419 130.835 73.005Z" fill="#5F2AE2"/>
</svg>
