<svg id="svg" version="1.1" width="866" height="288" xmlns="http://www.w3.org/2000/svg" xmlns:xlink="http://www.w3.org/1999/xlink" ><g id="svgg"><path id="path0" d="M313.030 41.858 C 312.865 42.024,311.736 42.232,310.522 42.320 C 307.068 42.571,305.431 42.989,304.671 43.812 C 302.308 46.372,302.210 46.539,302.626 47.282 C 303.203 48.313,304.992 48.232,305.989 47.131 C 308.466 44.394,316.238 44.536,319.199 47.373 C 320.468 48.589,322.864 48.427,322.864 47.125 C 322.864 46.464,319.682 43.418,318.991 43.418 C 318.581 43.418,318.245 43.249,318.245 43.042 C 318.245 42.836,317.262 42.616,316.062 42.554 C 314.861 42.492,313.755 42.242,313.605 41.999 C 313.455 41.756,313.196 41.692,313.030 41.858 M31.871 42.490 C 31.871 42.685,31.266 43.095,30.527 43.401 C 27.825 44.520,25.640 48.046,27.422 48.411 C 28.024 48.534,28.176 48.411,27.924 48.003 C 27.664 47.583,27.791 47.506,28.376 47.730 C 28.903 47.933,29.657 47.650,30.517 46.926 C 33.790 44.172,40.865 44.526,44.145 47.607 C 45.248 48.643,47.113 48.232,47.113 46.952 C 47.113 46.183,44.957 44.179,43.150 43.268 C 41.643 42.509,31.871 41.834,31.871 42.490 M79.460 43.391 C 79.178 43.918,79.163 44.328,79.422 44.420 C 79.961 44.612,81.287 46.436,85.660 53.002 C 89.393 58.609,89.326 58.546,90.395 57.477 C 90.852 57.020,91.725 56.808,92.773 56.899 L 94.429 57.044 98.922 50.346 C 104.082 42.653,103.960 42.956,101.879 42.956 C 100.613 42.956,100.083 43.259,99.246 44.457 C 98.670 45.283,97.929 46.125,97.598 46.328 C 97.268 46.531,96.998 46.926,96.998 47.205 C 96.998 47.485,95.993 49.293,94.766 51.224 C 93.538 53.155,92.402 55.098,92.240 55.543 C 91.910 56.449,90.993 56.646,90.993 55.810 C 90.993 55.512,90.649 54.889,90.229 54.424 C 89.672 53.809,89.628 53.580,90.070 53.580 C 90.402 53.580,90.144 53.112,89.495 52.540 C 88.846 51.969,87.117 49.630,85.651 47.344 C 84.186 45.058,82.926 43.109,82.852 43.013 C 82.329 42.342,79.875 42.615,79.460 43.391 M135.181 42.802 C 134.688 43.295,134.826 44.887,135.335 44.573 C 135.589 44.416,135.797 44.624,135.797 45.035 C 135.797 45.446,135.589 45.654,135.335 45.497 C 135.081 45.340,134.873 45.651,134.873 46.189 C 134.873 46.727,135.081 47.039,135.335 46.882 C 135.592 46.723,135.794 47.069,135.790 47.663 C 135.784 48.521,135.695 48.594,135.335 48.037 C 134.973 47.477,134.886 47.543,134.880 48.383 C 134.876 48.955,135.081 49.423,135.335 49.423 C 135.620 49.423,135.797 51.818,135.797 55.685 C 135.797 59.743,135.634 61.848,135.335 61.663 C 135.081 61.506,134.873 61.714,134.873 62.125 C 134.873 62.536,135.081 62.744,135.335 62.587 C 135.631 62.404,135.780 63.764,135.751 66.370 C 135.720 69.117,135.585 70.064,135.335 69.284 C 134.987 68.198,134.962 68.221,134.919 69.658 C 134.892 70.569,135.060 71.071,135.335 70.901 C 135.589 70.744,135.797 70.849,135.797 71.134 C 135.797 71.440,136.407 71.593,137.287 71.507 L 138.777 71.363 138.635 67.090 C 138.540 64.248,138.660 62.818,138.992 62.818 C 139.669 62.818,139.628 60.829,138.938 60.139 C 138.507 59.707,138.507 59.584,138.938 59.584 C 139.242 59.584,139.492 59.052,139.492 58.402 C 139.492 57.732,139.292 57.344,139.030 57.506 C 138.776 57.663,138.568 57.571,138.568 57.302 C 138.568 57.033,138.828 56.810,139.145 56.806 C 139.598 56.800,139.601 56.721,139.156 56.439 C 138.777 56.198,138.606 54.828,138.638 52.298 C 138.665 50.219,138.868 48.630,139.090 48.767 C 139.311 48.903,139.492 49.641,139.492 50.405 C 139.492 51.555,139.642 51.747,140.361 51.519 C 141.334 51.210,141.944 52.208,141.496 53.376 C 141.314 53.852,141.539 54.180,142.160 54.343 C 143.234 54.624,145.742 57.569,146.416 59.341 C 146.665 59.996,147.183 60.653,147.568 60.800 C 147.953 60.948,148.268 61.347,148.268 61.686 C 148.268 62.026,148.642 62.575,149.099 62.907 C 149.556 63.239,150.751 64.666,151.755 66.079 C 155.365 71.160,158.216 73.300,158.487 71.132 C 158.519 70.878,158.571 70.415,158.603 70.103 C 158.635 69.791,157.882 68.700,156.932 67.678 C 155.981 66.656,155.293 65.576,155.403 65.277 C 155.512 64.979,155.089 64.398,154.461 63.987 C 152.871 62.945,153.468 62.356,156.116 62.356 C 158.707 62.356,158.742 62.296,158.849 57.811 C 158.888 56.200,158.937 54.745,158.960 54.577 C 158.982 54.410,158.976 51.726,158.946 48.614 L 158.891 42.956 157.275 42.956 L 155.658 42.956 155.622 52.540 C 155.602 57.812,155.478 61.856,155.346 61.528 C 155.162 61.070,154.956 61.056,154.459 61.469 C 154.102 61.765,153.807 61.826,153.804 61.604 C 153.800 61.382,153.620 61.480,153.403 61.821 C 153.107 62.289,152.748 62.062,151.938 60.897 C 151.348 60.048,148.793 56.547,146.260 53.118 C 139.896 44.504,139.693 44.215,139.357 43.303 C 139.057 42.489,135.875 42.108,135.181 42.802 M201.504 43.072 C 201.252 43.389,200.588 44.894,200.027 46.415 C 199.466 47.936,198.772 49.463,198.486 49.808 C 198.199 50.154,197.902 50.884,197.827 51.431 C 197.751 51.978,197.509 52.841,197.289 53.349 C 196.097 56.109,195.876 56.671,195.608 57.628 C 195.447 58.203,195.122 58.555,194.886 58.409 C 194.650 58.263,194.457 58.347,194.457 58.595 C 194.457 60.857,197.392 61.362,198.192 59.238 C 198.455 58.539,198.970 57.364,199.335 56.626 C 199.701 55.889,200.000 55.005,200.000 54.663 C 200.000 54.321,200.426 53.615,200.947 53.094 C 201.589 52.453,201.797 51.837,201.591 51.189 C 201.367 50.482,201.442 50.327,201.877 50.595 C 202.296 50.855,202.381 50.738,202.172 50.191 C 202.009 49.769,202.026 49.423,202.208 49.424 C 202.605 49.426,205.630 56.986,205.466 57.566 C 205.404 57.787,205.704 58.627,206.134 59.433 C 206.721 60.534,206.773 60.948,206.344 61.101 C 205.453 61.420,206.296 62.009,207.643 62.009 C 209.662 62.009,210.358 60.949,209.574 59.072 C 209.214 58.211,208.881 57.353,208.834 57.165 C 208.787 56.978,208.339 55.870,207.838 54.702 C 207.338 53.535,206.928 52.498,206.928 52.398 C 206.928 52.299,206.336 50.913,205.612 49.319 C 204.888 47.725,204.144 45.798,203.958 45.037 C 203.396 42.731,202.403 41.936,201.504 43.072 M255.825 42.851 C 248.557 42.963,247.655 43.063,247.470 43.775 C 246.992 45.621,247.392 45.727,254.796 45.727 C 262.484 45.727,264.665 46.235,264.665 48.026 C 264.665 48.515,265.007 49.106,265.425 49.340 C 266.027 49.677,266.132 50.228,265.932 52.004 C 265.459 56.201,262.980 57.268,253.695 57.272 L 247.575 57.275 247.575 64.434 L 247.575 71.594 249.192 71.594 C 251.020 71.594,250.905 72.023,250.813 65.556 C 250.760 61.850,250.825 61.563,251.822 61.083 L 252.887 60.571 251.732 60.466 C 251.097 60.409,253.410 60.220,256.872 60.046 C 263.863 59.694,265.399 59.136,267.714 56.100 C 268.836 54.629,270.045 49.423,269.264 49.423 C 269.085 49.423,268.810 48.786,268.655 48.007 C 268.407 46.769,266.950 45.036,264.665 43.263 C 264.183 42.889,261.493 42.763,255.825 42.851 M359.055 42.865 C 357.280 42.994,357.127 43.113,356.966 44.482 L 356.792 45.958 359.920 45.805 C 362.858 45.661,363.700 45.261,362.555 44.553 C 362.284 44.386,362.165 43.978,362.292 43.648 C 362.573 42.917,361.592 42.680,359.055 42.865 M367.090 42.862 C 363.975 42.998,363.972 43.000,363.972 44.363 L 363.972 45.727 367.321 45.798 C 369.163 45.836,371.085 45.861,371.594 45.853 C 378.284 45.741,377.829 45.852,377.829 44.342 C 377.829 42.986,377.777 42.955,375.404 42.893 C 374.070 42.858,372.356 42.806,371.594 42.778 C 370.831 42.749,368.805 42.787,367.090 42.862 M357.026 47.460 C 356.812 51.572,356.902 56.813,357.187 56.813 C 357.392 56.813,357.422 57.036,357.254 57.309 C 357.085 57.582,357.380 57.535,357.908 57.205 C 358.725 56.695,358.957 56.722,359.457 57.387 C 359.959 58.053,361.041 58.179,366.744 58.235 L 373.441 58.301 373.585 56.877 L 373.729 55.452 366.887 55.324 L 360.046 55.196 360.046 51.155 L 360.046 47.113 358.545 47.113 C 357.719 47.113,357.036 47.269,357.026 47.460 M27.343 50.089 C 25.065 51.136,26.665 55.240,29.876 56.585 C 32.044 57.494,38.754 58.780,39.842 58.495 C 40.480 58.329,41.063 58.603,41.648 59.348 C 42.124 59.952,42.976 60.512,43.543 60.593 C 44.239 60.692,44.625 61.114,44.732 61.894 C 44.820 62.529,45.132 63.348,45.425 63.715 C 45.846 64.240,45.826 64.301,45.332 64.003 C 44.856 63.717,44.777 63.854,45.005 64.573 C 45.211 65.222,45.045 65.672,44.478 66.002 C 44.022 66.268,43.835 66.491,44.063 66.499 C 44.290 66.506,43.927 67.022,43.255 67.645 C 42.582 68.268,42.032 69.100,42.032 69.493 C 42.032 69.886,41.824 70.208,41.570 70.208 C 41.316 70.208,41.109 70.520,41.109 70.901 C 41.109 72.650,46.599 70.018,47.538 67.818 C 47.899 66.973,48.338 66.178,48.515 66.051 C 49.113 65.620,48.204 60.953,47.281 59.716 C 45.375 57.163,44.598 56.838,36.357 55.143 C 34.379 54.736,32.471 54.114,32.117 53.760 C 31.764 53.407,31.155 53.118,30.765 53.118 C 29.976 53.118,29.123 51.782,29.408 50.993 C 29.731 50.102,28.494 49.560,27.343 50.089 M134.999 51.732 C 134.999 52.875,135.089 53.343,135.199 52.771 C 135.309 52.200,135.309 51.264,135.199 50.693 C 135.089 50.121,134.999 50.589,134.999 51.732 M302.651 50.702 C 298.874 51.324,303.401 56.353,308.776 57.505 C 310.808 57.941,313.309 58.587,314.334 58.941 C 315.359 59.295,316.538 59.584,316.955 59.584 C 321.073 59.584,321.654 66.127,317.717 68.163 C 316.957 68.556,316.528 69.087,316.670 69.458 C 316.813 69.829,316.522 70.188,315.961 70.335 C 315.335 70.499,315.012 70.362,315.012 69.934 C 315.012 69.447,314.310 69.284,312.217 69.284 C 310.671 69.284,308.841 68.983,308.119 68.610 C 307.401 68.239,306.712 68.037,306.588 68.162 C 306.358 68.392,304.869 66.954,303.809 65.481 C 302.035 63.013,300.472 65.946,302.176 68.545 C 304.049 71.403,314.164 73.466,315.425 71.247 C 315.795 70.596,316.051 70.541,316.742 70.963 C 318.973 72.326,324.252 67.553,323.999 64.402 C 323.640 59.941,321.942 57.893,317.453 56.508 C 315.983 56.054,314.648 55.495,314.486 55.265 C 314.324 55.035,313.963 54.988,313.684 55.160 C 312.478 55.906,306.965 53.980,305.312 52.236 C 304.170 51.031,303.388 50.580,302.651 50.702 M356.952 65.012 C 356.860 68.251,356.856 71.057,356.942 71.247 C 357.028 71.438,361.739 71.594,367.411 71.594 L 377.724 71.594 377.928 70.208 L 378.131 68.822 370.397 68.822 C 364.643 68.822,362.604 68.674,362.431 68.245 C 362.244 67.783,362.190 67.783,362.161 68.245 C 362.141 68.562,361.605 68.822,360.970 68.822 L 359.815 68.822 359.815 63.972 L 359.815 59.122 358.467 59.122 L 357.119 59.122 356.952 65.012 M90.001 60.012 C 89.911 60.275,89.903 62.989,89.981 66.042 L 90.124 71.594 91.690 71.594 L 93.256 71.594 93.164 65.704 L 93.072 59.815 91.618 59.674 C 90.818 59.596,90.090 59.748,90.001 60.012 M200.681 63.303 C 200.222 64.189,200.081 65.088,200.299 65.727 C 200.489 66.286,200.599 66.915,200.542 67.124 C 200.485 67.334,200.634 67.384,200.873 67.237 C 201.112 67.090,201.376 67.172,201.462 67.420 C 201.556 67.695,202.067 67.647,202.771 67.297 C 204.436 66.469,204.575 64.386,203.060 62.980 C 201.579 61.608,201.556 61.611,200.681 63.303 M25.866 65.551 C 25.866 65.784,25.729 66.356,25.562 66.821 C 25.394 67.287,25.428 67.512,25.637 67.322 C 25.847 67.132,26.469 67.724,27.021 68.638 C 27.572 69.552,28.164 70.275,28.335 70.244 C 28.507 70.214,29.217 70.476,29.912 70.826 C 33.939 72.853,40.992 72.569,40.447 70.401 C 40.235 69.554,40.330 69.369,40.872 69.577 C 41.256 69.724,41.570 69.613,41.570 69.331 C 41.570 68.971,40.415 68.906,37.711 69.113 C 35.035 69.319,33.751 69.249,33.526 68.885 C 33.348 68.597,32.720 68.360,32.131 68.360 C 31.006 68.360,29.815 67.337,30.335 66.817 C 30.502 66.649,30.286 66.513,29.855 66.513 C 29.423 66.513,28.951 66.201,28.804 65.820 C 28.519 65.076,25.866 64.833,25.866 65.551 M67.663 84.996 C 67.531 85.209,67.842 85.517,68.354 85.679 C 68.865 85.842,69.284 86.182,69.284 86.436 C 69.284 86.977,67.283 86.453,67.052 85.851 C 66.832 85.279,65.589 85.354,65.589 85.939 C 65.589 86.209,65.381 86.300,65.127 86.143 C 64.873 85.986,64.665 86.194,64.665 86.605 C 64.665 87.016,64.838 87.245,65.050 87.115 C 65.262 86.984,65.435 87.170,65.435 87.529 C 65.435 87.888,65.262 88.074,65.050 87.943 C 64.838 87.812,64.665 87.925,64.665 88.194 C 64.665 88.463,64.846 88.684,65.067 88.684 C 65.288 88.684,65.467 89.047,65.465 89.492 C 65.452 92.815,65.634 93.764,66.282 93.764 C 66.747 93.764,66.975 93.300,66.975 92.351 C 66.975 91.527,67.167 91.057,67.436 91.224 C 67.691 91.381,67.898 91.289,67.898 91.020 C 67.898 90.751,68.314 90.531,68.822 90.531 C 69.561 90.531,69.746 90.839,69.746 92.071 C 69.746 93.879,69.977 94.200,71.069 93.915 C 71.948 93.685,73.216 90.993,72.444 90.993 C 72.194 90.993,72.027 90.525,72.073 89.954 C 72.301 87.143,72.034 85.450,71.363 85.450 C 70.893 85.450,70.670 85.921,70.670 86.913 C 70.670 88.629,70.269 88.436,69.929 86.557 C 69.615 84.826,68.319 83.934,67.663 84.996 M91.104 85.577 C 91.229 86.282,91.160 86.964,90.951 87.093 C 90.742 87.222,90.691 87.685,90.837 88.121 C 90.983 88.557,90.551 88.135,89.877 87.182 C 88.516 85.261,88.149 85.118,87.276 86.169 C 86.783 86.764,86.793 86.864,87.335 86.747 C 87.720 86.663,87.965 86.937,87.927 87.408 C 87.893 87.850,88.038 88.104,88.251 87.973 C 88.924 87.556,89.739 89.586,89.172 90.268 C 88.805 90.711,88.858 91.024,89.371 91.450 C 89.755 91.769,90.069 92.420,90.069 92.897 C 90.069 93.374,90.381 93.764,90.762 93.764 C 91.189 93.764,91.455 93.331,91.455 92.633 C 91.455 92.011,91.987 90.928,92.638 90.226 C 93.324 89.486,93.730 88.602,93.605 88.123 C 93.486 87.668,93.710 87.116,94.103 86.896 C 95.051 86.365,94.439 85.450,93.137 85.450 C 92.567 85.450,91.826 85.191,91.489 84.873 C 90.987 84.400,90.918 84.526,91.104 85.577 M132.382 85.257 C 132.228 85.659,132.102 86.993,132.102 88.221 C 132.102 89.556,131.869 90.563,131.524 90.724 C 131.062 90.939,131.062 91.047,131.524 91.263 C 131.842 91.411,132.102 92.034,132.102 92.648 C 132.102 93.332,132.370 93.764,132.794 93.764 C 133.264 93.764,133.487 93.294,133.487 92.302 C 133.487 91.497,133.624 90.976,133.791 91.143 C 133.958 91.310,134.397 91.197,134.765 90.891 C 135.300 90.447,135.556 90.501,136.037 91.159 C 136.614 91.948,136.649 91.948,136.858 91.142 C 136.977 90.679,137.099 91.080,137.129 92.032 C 137.217 94.896,138.568 94.354,138.568 91.455 C 138.568 90.185,138.776 89.145,139.030 89.145 C 139.695 89.145,139.600 87.880,138.915 87.604 C 138.453 87.417,138.453 87.364,138.915 87.334 C 139.232 87.314,139.492 86.952,139.492 86.528 C 139.492 86.105,139.366 85.884,139.212 86.038 C 138.866 86.385,137.670 85.337,137.927 84.912 C 138.116 84.598,134.666 84.850,133.579 85.230 C 133.248 85.345,133.104 85.234,133.260 84.983 C 133.415 84.732,133.344 84.527,133.102 84.527 C 132.860 84.527,132.536 84.855,132.382 85.257 M108.786 85.363 C 108.431 85.719,110.070 88.222,110.657 88.222 C 111.020 88.222,111.344 88.689,111.377 89.261 C 111.418 89.954,111.551 89.761,111.778 88.684 L 112.119 87.067 112.147 88.684 C 112.163 89.573,112.014 90.713,111.817 91.217 C 111.348 92.419,111.689 93.631,112.595 93.979 C 113.665 94.390,113.988 93.512,113.794 90.717 C 113.691 89.237,113.809 88.222,114.085 88.222 C 114.341 88.222,114.550 87.910,114.550 87.529 C 114.550 87.148,114.879 86.836,115.281 86.836 C 115.683 86.836,115.927 86.576,115.822 86.259 C 115.656 85.753,109.212 84.933,108.786 85.363 M160.697 85.486 C 160.147 85.834,160.154 85.901,160.739 85.919 C 161.280 85.936,161.253 86.045,160.614 86.417 C 160.164 86.678,159.915 87.086,160.061 87.323 C 160.208 87.559,160.114 88.118,159.854 88.564 C 159.594 89.011,159.375 89.123,159.367 88.814 C 159.360 88.504,159.044 88.369,158.667 88.514 C 158.225 88.684,157.831 88.383,157.560 87.672 C 156.334 84.446,154.400 85.073,154.605 88.629 C 154.678 89.898,154.538 91.060,154.294 91.210 C 153.732 91.558,154.183 92.896,155.118 93.649 C 155.941 94.312,160.094 94.435,160.481 93.808 C 160.624 93.578,161.155 93.498,161.663 93.631 C 162.453 93.837,162.587 93.645,162.587 92.294 C 162.587 91.426,162.845 90.458,163.160 90.142 C 163.526 89.776,163.568 89.451,163.276 89.242 C 162.643 88.790,162.485 87.760,163.048 87.760 C 163.303 87.760,163.510 87.436,163.510 87.040 C 163.510 86.644,163.303 86.448,163.048 86.605 C 162.794 86.762,162.587 86.589,162.587 86.220 C 162.587 85.361,161.538 84.953,160.697 85.486 M216.360 85.681 C 215.551 88.178,216.520 93.848,217.724 93.663 C 218.264 93.580,218.663 93.281,218.610 93.000 C 218.556 92.719,218.953 92.100,219.490 91.625 C 220.454 90.774,220.465 90.777,220.208 91.801 C 220.031 92.510,220.155 92.841,220.598 92.841 C 220.955 92.841,221.247 93.048,221.247 93.303 C 221.247 93.557,221.643 93.764,222.128 93.764 C 222.802 93.764,222.947 93.531,222.748 92.768 C 222.569 92.086,222.656 91.876,223.022 92.103 C 223.343 92.301,223.557 92.134,223.557 91.686 C 223.557 91.275,223.349 91.067,223.095 91.224 C 222.232 91.757,221.672 90.964,222.398 90.238 C 223.264 89.372,223.276 87.345,222.421 86.216 C 221.706 85.273,216.637 84.826,216.360 85.681 M242.927 85.465 C 240.350 85.894,238.825 87.254,239.137 88.846 C 239.301 89.684,239.172 90.301,238.780 90.543 C 238.304 90.837,238.288 91.071,238.709 91.578 C 239.008 91.938,239.133 92.353,238.986 92.499 C 238.840 92.646,239.126 92.983,239.623 93.249 C 240.119 93.515,240.636 93.621,240.771 93.487 C 240.906 93.352,241.173 93.495,241.365 93.805 C 241.602 94.189,241.520 94.250,241.109 93.995 C 240.708 93.748,240.615 93.802,240.833 94.155 C 241.240 94.813,243.880 94.867,243.880 94.216 C 243.880 93.957,244.393 93.511,245.020 93.225 C 245.647 92.939,246.065 92.552,245.949 92.364 C 245.833 92.175,246.047 91.765,246.425 91.451 C 246.804 91.137,247.110 90.646,247.106 90.359 C 247.102 90.073,246.898 90.150,246.651 90.531 C 246.298 91.078,246.202 90.976,246.196 90.046 C 246.193 89.398,246.420 88.638,246.701 88.357 C 247.075 87.983,246.947 87.704,246.226 87.318 C 245.684 87.027,245.328 86.644,245.435 86.466 C 245.863 85.758,244.481 85.206,242.927 85.465 M285.217 86.378 C 284.824 87.138,284.284 87.760,284.016 87.760 C 283.716 87.760,283.646 88.290,283.834 89.145 C 284.052 90.142,283.965 90.533,283.524 90.538 C 283.067 90.544,283.087 90.658,283.603 90.986 C 283.984 91.228,284.296 91.900,284.296 92.480 C 284.296 93.420,284.547 93.548,286.633 93.669 C 289.193 93.818,291.455 92.590,291.455 91.052 C 291.455 90.613,291.704 90.005,292.009 89.700 C 292.391 89.318,292.404 89.145,292.050 89.145 C 291.768 89.145,291.591 88.782,291.658 88.337 C 291.724 87.893,291.391 87.255,290.916 86.920 C 290.442 86.585,290.173 86.117,290.320 85.881 C 290.466 85.644,290.002 85.435,289.288 85.416 C 288.575 85.397,287.527 85.295,286.961 85.189 C 286.184 85.044,285.756 85.337,285.217 86.378 M43.702 85.826 C 43.574 86.033,43.406 87.852,43.328 89.868 L 43.187 93.533 44.573 93.607 C 45.335 93.647,46.542 93.699,47.256 93.722 C 47.995 93.746,48.431 93.963,48.268 94.226 C 47.873 94.865,48.412 94.806,49.135 94.130 C 49.769 93.538,49.225 91.180,48.268 90.372 C 47.999 90.145,48.144 90.091,48.614 90.242 C 49.059 90.385,49.437 90.353,49.454 90.170 C 49.472 89.988,49.558 89.302,49.646 88.646 C 49.956 86.321,44.884 83.914,43.702 85.826 M194.919 86.401 C 194.919 86.924,194.711 87.224,194.457 87.067 C 194.189 86.901,194.009 87.325,194.028 88.079 C 194.056 89.220,194.108 89.265,194.457 88.453 C 194.734 87.810,194.864 88.476,194.887 90.647 C 194.926 94.445,195.922 94.760,197.655 91.521 C 197.970 90.933,198.344 90.569,198.487 90.711 C 198.629 90.854,198.479 91.292,198.153 91.685 C 197.653 92.287,197.679 92.354,198.318 92.109 C 198.735 91.949,199.076 91.620,199.076 91.378 C 199.076 91.136,199.242 91.041,199.445 91.166 C 199.647 91.292,200.115 91.203,200.484 90.970 C 201.020 90.630,201.029 90.544,200.524 90.538 C 200.025 90.533,200.051 90.292,200.650 89.376 C 201.340 88.324,201.343 88.124,200.682 87.115 C 199.444 85.225,194.919 84.665,194.919 86.401 M261.727 86.143 C 261.873 86.524,262.334 86.839,262.751 86.843 C 263.289 86.848,263.346 86.955,262.946 87.209 C 262.535 87.470,262.692 87.901,263.524 88.798 C 264.341 89.679,264.665 90.552,264.665 91.869 C 264.665 95.521,266.063 94.667,266.255 90.898 C 266.340 89.241,266.628 88.356,267.225 87.919 C 267.693 87.577,267.879 87.295,267.640 87.291 C 267.401 87.287,267.492 87.102,267.842 86.881 C 269.143 86.056,267.791 85.450,264.652 85.450 C 262.005 85.450,261.506 85.569,261.727 86.143 M309.353 85.929 C 308.326 86.553,307.242 88.669,307.410 89.723 C 307.481 90.167,307.308 90.531,307.026 90.531 C 306.672 90.531,306.685 90.703,307.067 91.085 C 307.372 91.390,307.621 92.026,307.621 92.498 C 307.621 92.971,307.805 93.244,308.029 93.105 C 308.253 92.967,308.966 93.270,309.613 93.779 C 310.267 94.293,310.910 94.510,311.061 94.266 C 311.210 94.025,311.848 93.922,312.479 94.036 C 313.356 94.196,313.626 94.047,313.626 93.404 C 313.626 92.942,313.852 92.338,314.128 92.061 C 314.467 91.722,314.476 91.464,314.156 91.266 C 313.843 91.073,313.912 90.420,314.360 89.349 C 315.071 87.648,314.756 86.350,313.562 86.060 C 311.429 85.542,310.062 85.500,309.353 85.929 M330.859 86.054 C 330.699 86.314,330.805 86.374,331.101 86.191 C 331.438 85.982,331.534 86.113,331.365 86.552 C 331.220 86.930,330.834 87.137,330.506 87.011 C 329.721 86.710,329.133 88.276,329.862 88.727 C 330.305 89.001,330.304 89.221,329.859 89.758 C 329.537 90.146,329.481 90.511,329.731 90.602 C 329.972 90.690,330.240 91.178,330.327 91.686 C 330.525 92.844,331.938 93.727,333.630 93.748 C 334.374 93.757,334.806 93.961,334.642 94.226 C 334.485 94.480,334.577 94.688,334.846 94.688 C 335.115 94.688,335.335 94.480,335.335 94.226 C 335.335 93.972,335.491 93.816,335.681 93.880 C 335.872 93.943,336.071 93.828,336.123 93.624 C 336.175 93.420,336.668 92.888,337.218 92.443 C 338.060 91.761,338.159 91.380,337.844 90.043 C 337.638 89.168,337.518 88.193,337.577 87.875 C 337.637 87.558,337.456 87.298,337.175 87.298 C 336.895 87.298,336.771 87.128,336.900 86.920 C 337.232 86.382,334.463 85.481,332.663 85.541 C 331.828 85.569,331.016 85.800,330.859 86.054 M353.811 89.607 L 353.811 93.764 356.351 93.764 C 358.301 93.764,358.891 93.603,358.891 93.072 C 358.891 92.588,358.404 92.379,357.275 92.379 C 355.756 92.379,355.349 91.968,355.673 90.762 C 356.307 88.398,355.617 85.450,354.429 85.450 C 353.958 85.450,353.811 86.442,353.811 89.607 M134.687 86.337 C 135.080 86.010,135.335 85.983,135.335 86.268 C 135.335 86.526,135.006 86.863,134.604 87.018 C 133.554 87.421,133.483 87.386,133.524 86.490 C 133.547 85.976,133.647 85.899,133.800 86.278 C 133.983 86.736,134.189 86.750,134.687 86.337 M243.780 88.737 C 243.803 89.547,244.093 90.378,244.425 90.582 C 244.904 90.879,244.910 91.071,244.453 91.528 C 243.997 91.985,243.880 91.942,243.880 91.316 C 243.880 90.812,243.508 90.529,242.841 90.524 C 241.745 90.517,239.939 89.627,240.993 89.614 C 241.311 89.611,241.570 89.310,241.570 88.948 C 241.570 86.761,243.718 86.557,243.780 88.737 M312.125 88.037 C 313.462 88.144,313.626 88.267,313.626 89.162 C 313.626 90.529,312.289 92.369,311.512 92.071 C 311.151 91.932,310.855 91.528,310.855 91.175 C 310.855 90.821,310.439 90.531,309.931 90.531 C 309.423 90.531,309.007 90.340,309.007 90.107 C 309.007 89.134,309.614 88.222,310.260 88.222 C 310.720 88.222,310.858 87.949,310.672 87.413 C 310.428 86.712,310.467 86.697,310.969 87.298 C 311.287 87.679,311.807 88.012,312.125 88.037 M199.147 88.192 C 199.541 87.625,199.581 87.629,199.422 88.222 C 199.217 88.986,196.305 89.481,196.305 88.751 C 196.305 88.058,197.385 87.825,198.072 88.370 C 198.514 88.720,198.813 88.671,199.147 88.192 M335.370 89.105 C 335.692 88.596,335.784 88.656,335.790 89.381 C 335.794 89.891,335.373 90.574,334.855 90.897 C 334.337 91.221,334.038 91.686,334.189 91.932 C 334.695 92.749,333.181 92.393,332.378 91.505 C 331.623 90.671,331.650 90.604,332.999 90.007 C 333.845 89.633,334.436 89.010,334.474 88.455 C 334.524 87.717,334.579 87.755,334.747 88.643 C 334.909 89.505,335.050 89.610,335.370 89.105 M288.794 90.054 C 289.493 90.870,289.500 91.034,288.864 91.671 C 287.459 93.075,285.700 92.229,286.166 90.372 C 286.533 88.911,287.695 88.771,288.794 90.054 M352.631 91.033 C 352.460 91.309,352.552 91.767,352.835 92.049 C 353.212 92.427,353.349 92.293,353.349 91.547 C 353.349 90.432,353.109 90.260,352.631 91.033 M47.471 92.582 C 47.552 92.663,46.985 92.822,46.211 92.936 C 45.278 93.073,44.804 92.946,44.804 92.560 C 44.804 92.055,46.961 92.073,47.471 92.582 " stroke="none" fill="#000000" fill-rule="evenodd"></path></g></svg>