<?xml version="1.0" encoding="UTF-8"?>
<svg version="1.1" xmlns="http://www.w3.org/2000/svg" width="866" height="288">
<path d="M0 0 C3.1651828 -0.5697329 5.84715112 -0.69689638 9 0 C10.57104492 1.72045898 10.57104492 1.72045898 11.91796875 3.99609375 C12.42392578 4.8156958 12.92988281 5.63529785 13.45117188 6.47973633 C13.96228516 7.31142334 14.47339844 8.14311035 15 9 C15.99958081 10.44003317 17.01365399 11.87013035 18.04296875 13.2890625 C18.55448486 13.99627441 19.06600098 14.70348633 19.59301758 15.43212891 C20.11919678 16.15577637 20.64537598 16.87942383 21.1875 17.625 C22.02027466 18.77427979 22.02027466 18.77427979 22.86987305 19.94677734 C28.2176228 27.31904866 33.60143979 34.66488212 39 42 C40.65 41.34 42.3 40.68 44 40 C43.505 36.04 43.505 36.04 43 32 C43.33 32 43.66 32 44 32 C44.33 21.77 44.66 11.54 45 1 C47.31 1 49.62 1 52 1 C53.89534759 37.20930482 53.89534759 37.20930482 51 43 C48.96875 43.37890625 48.96875 43.37890625 46.5 43.5625 C43.45018475 43.5792263 43.45018475 43.5792263 41 45 C41.639375 45.226875 42.27875 45.45375 42.9375 45.6875 C45 47 45 47 45.5625 49.4375 C45.706875 50.283125 45.85125 51.12875 46 52 C47.35405861 53.60411246 47.35405861 53.60411246 49 55 C50.75 56.9375 50.75 56.9375 52 59 C51.6875 61.25 51.6875 61.25 51 63 C45.45241326 63.36983912 45.45241326 63.36983912 43.48046875 61.7578125 C41.84893048 59.82062986 40.48880752 57.82167447 39.125 55.6875 C34.9752543 48.90600333 34.9752543 48.90600333 29 44 C29 42.68 29 41.36 29 40 C28.401875 39.79375 27.80375 39.5875 27.1875 39.375 C24.17282503 37.48006145 23.50187105 35.19147598 22 32 C19.64946265 28.66375344 17.83224838 26.50552615 14 25 C14 23.68 14 22.36 14 21 C12.68 20.67 11.36 20.34 10 20 C9.67 18.02 9.34 16.04 9 14 C8.97314905 16.47923801 8.95323453 18.9581884 8.9375 21.4375 C8.92912109 22.14455078 8.92074219 22.85160156 8.91210938 23.58007812 C8.90346412 25.38693559 8.94779989 27.19387603 9 29 C9.33 29.33 9.66 29.66 10 30 C10.07271741 32.35313555 10.08370868 34.70833668 10.0625 37.0625 C10.05347656 38.35285156 10.04445313 39.64320313 10.03515625 40.97265625 C10.02355469 41.97167969 10.01195312 42.97070312 10 44 C9.34 44 8.68 44 8 44 C8 48.95 8 53.9 8 59 C8.66 59.33 9.32 59.66 10 60 C9.34 60.99 8.68 61.98 8 63 C4.92078868 63.25660094 2.78863007 63.39431504 0 62 C0 55 0 48 0 41 C0.66 41 1.32 41 2 41 C2 38.36 2 35.72 2 33 C1.34 33 0.68 33 0 33 C0 22 0 11 0 0 Z M1 5 C2 7 2 7 2 7 Z M1 15 C1 19.95 1 24.9 1 30 C1.33 30 1.66 30 2 30 C2 25.05 2 20.1 2 15 C1.67 15 1.34 15 1 15 Z M1 55 C2 59 2 59 2 59 Z " fill="#0B161D" transform="translate(292,92)"/>
<path d="M0 0 C0.495 1.485 0.495 1.485 1 3 C1.763125 3.268125 2.52625 3.53625 3.3125 3.8125 C6.98003421 5.43303837 8.1209477 7.52027351 10 11 C10 12.32 10 13.64 10 15 C10.66 15 11.32 15 12 15 C11.06232032 27.72565285 11.06232032 27.72565285 6.5625 32.1875 C-1.70747364 39.24287708 -12.26681981 39.42437839 -22.79296875 38.77734375 C-25.01388854 38.85731948 -25.01388854 38.85731948 -26.79296875 39.9765625 C-28.74821284 43.2542856 -28.26770004 46.74280979 -28.125 50.4375 C-28.08140517 51.95690797 -28.04219958 53.47644951 -28.0078125 54.99609375 C-27.98348145 55.66825928 -27.95915039 56.3404248 -27.93408203 57.03295898 C-28.00488704 59.14583299 -28.42001424 60.97231321 -29 63 C-31.31 63 -33.62 63 -36 63 C-37.10961564 59.48808517 -37.03443358 56.36665772 -36.87890625 52.703125 C-36.80639648 50.89521484 -36.80639648 50.89521484 -36.73242188 49.05078125 C-36.67634766 47.79652344 -36.62027344 46.54226562 -36.5625 45.25 C-36.51029297 43.98027344 -36.45808594 42.71054688 -36.40429688 41.40234375 C-36.27468016 38.26797593 -36.13971529 35.13393126 -36 32 C-35.19369141 31.98541748 -34.38738281 31.97083496 -33.55664062 31.95581055 C-29.87063378 31.88091538 -26.18549163 31.7843904 -22.5 31.6875 C-21.2315625 31.66494141 -19.963125 31.64238281 -18.65625 31.61914062 C-11.80326323 31.42283111 -6.18421382 31.06580709 0 28 C3.4352994 24.12143616 3.57719662 19.98907986 4 15 C3.01 14.67 2.02 14.34 1 14 C0.87625 13.360625 0.7525 12.72125 0.625 12.0625 C0.41875 11.381875 0.2125 10.70125 0 10 C-4.05166391 7.85625746 -7.73913172 7.69779922 -12.26953125 7.5859375 C-12.95053391 7.56657135 -13.63153656 7.5472052 -14.33317566 7.5272522 C-16.49282593 7.46781868 -18.65253057 7.421218 -20.8125 7.375 C-22.28322544 7.33678672 -23.75392929 7.29773306 -25.22460938 7.2578125 C-28.81620789 7.16214817 -32.40796913 7.07798425 -36 7 C-37 4 -37 4 -36 1 C-31.50008666 0.83093851 -27.00005734 0.66518068 -22.5 0.5 C-21.2315625 0.45230469 -19.963125 0.40460938 -18.65625 0.35546875 C-12.43313793 0.12858446 -6.22729901 -0.06290201 0 0 Z " fill="#0D161A" transform="translate(572,92)"/>
<path d="M0 0 C0.061875 0.94875 0.12375 1.8975 0.1875 2.875 C0.455625 3.90625 0.72375 4.9375 1 6 C3.2029802 7.38249718 3.2029802 7.38249718 6 8 C7.30904297 8.45826172 7.30904297 8.45826172 8.64453125 8.92578125 C13.26993085 10.40655528 17.97609908 11.39856509 22.72265625 12.41210938 C29.19948946 13.86621057 34.73079954 15.72925747 38.9609375 21.1875 C41.16074723 25.02476209 42.4251515 29.66609543 41.625 34.05859375 C40.07644874 38.86878112 38.76838174 41.93950121 34.39453125 44.5625 C27.00195312 48 27.00195312 48 23 48 C22.236875 48.10699219 21.47375 48.21398437 20.6875 48.32421875 C13.46779025 49.30013882 7.84158254 48.41906423 1 46 C0.11570312 45.69707031 -0.76859375 45.39414063 -1.6796875 45.08203125 C-5.54980867 43.27727778 -7.14649179 39.70701642 -9 36 C-8.67 35.01 -8.34 34.02 -8 33 C-6.02 33 -4.04 33 -2 33 C-1.67 33.66 -1.34 34.32 -1 35 C-0.01 35.66 0.98 36.32 2 37 C2.99 37.66 3.98 38.32 5 39 C11.39492609 42.38554911 19.15312694 41.53428147 25.98046875 39.8125 C29.73317373 38.30270767 30.97509393 36.52725573 33 33 C33.38417998 30.18942015 33.24630352 27.85712079 33 25 C32.34 25 31.68 25 31 25 C31 24.34 31 23.68 31 23 C30.38125 22.9175 29.7625 22.835 29.125 22.75 C27 22 27 22 25.75 19.9375 C25.5025 19.298125 25.255 18.65875 25 18 C24.01 18.495 24.01 18.495 23 19 C14.24854239 19.0723261 3.24332889 17.95903173 -3.9296875 12.54296875 C-6.60177712 9.56139982 -7 8.05513539 -7 4 C-7.66 4 -8.32 4 -9 4 C-9 3.34 -9 2.68 -9 2 C-3.375 -1.125 -3.375 -1.125 0 0 Z M26 42 C25.34 42.66 24.68 43.32 24 44 C24.99 44 25.98 44 27 44 C26.67 43.34 26.34 42.68 26 42 Z " fill="#0E1C21" transform="translate(64,108)"/>
<path d="M0 0 C0 0.66 0 1.32 0 2 C0.66 2.33 1.32 2.66 2 3 C2.57878906 3.64582031 3.15757812 4.29164062 3.75390625 4.95703125 C6.44891889 7.40832101 8.4017903 7.9161535 11.9375 8.6875 C12.95714844 8.91824219 13.97679687 9.14898437 15.02734375 9.38671875 C16.83804826 9.76028065 18.65259207 10.11649748 20.47265625 10.44140625 C27.74932484 12.04969622 36.75170017 14.5543037 41 21 C42.64776907 25.63065358 43.78652848 30.27846044 42 35 C39.11882477 40.04205665 36.06056295 43.95492972 30.4375 45.875 C27.66115934 46.01737644 26.32657031 45.4648776 24 44 C24 43.34 24 42.68 24 42 C24.99 41.505 24.99 41.505 26 41 C27.02408568 40.0246803 28.01834406 39.01801357 29 38 C29.886875 37.2575 30.77375 36.515 31.6875 35.75 C34.27610082 33.13599595 34.27610082 33.13599595 34.625 29.5 C33.83202641 25.05934789 32.42480604 23.86560629 29 21 C25.96539199 19.81323016 25.96539199 19.81323016 22.6328125 19.2265625 C21.41722656 18.9584375 20.20164062 18.6903125 18.94921875 18.4140625 C16.40877225 17.88988457 13.86710021 17.37161011 11.32421875 16.859375 C4.53752615 15.35122109 -0.20905646 13.9993813 -4.92260742 8.73950195 C-6.54720637 6.11650909 -6.50877292 3.97995565 -6 1 C-3.92446352 0.4465236 -2.15634036 0 0 0 Z " fill="#0E191D" transform="translate(659,109)"/>
<path d="M0 0 C2.55925868 0.96965702 3.7566157 1.52162395 5.01953125 4.00390625 C5.41205078 5.27041016 5.41205078 5.27041016 5.8125 6.5625 C7.76506667 12.43569657 10.06236407 18.10358988 12.45043945 23.80883789 C18.10977816 37.38837883 18.10977816 37.38837883 17.5625 40.4375 C15.28922009 42.71077991 13.12381366 42.72836403 10 43 C9.47321339 41.41964016 8.95845623 39.83198671 8.55859375 38.21484375 C7.82325696 35.29920768 6.94326579 32.43745249 6.0625 29.5625 C5.72347656 28.45003906 5.38445312 27.33757812 5.03515625 26.19140625 C4.0626121 23.04926847 4.0626121 23.04926847 2.87109375 20.27734375 C2 18 2 18 2 15 C1.731875 16.093125 1.46375 17.18625 1.1875 18.3125 C0 22 0 22 -1.41015625 23.31640625 C-3.72160814 25.76415997 -4.48728819 28.47709801 -5.625 31.625 C-7.91666667 37.91666667 -7.91666667 37.91666667 -9 39 C-10.99958364 39.04080783 -13.00045254 39.04254356 -15 39 C-15.33 37.35 -15.66 35.7 -16 34 C-15.01 33.505 -15.01 33.505 -14 33 C-13.34444881 30.47266765 -13.34444881 30.47266765 -13 28 C-12.34 28 -11.68 28 -11 28 C-11.33 27.01 -11.66 26.02 -12 25 C-11.07175817 22.6372026 -10.06902939 20.30252483 -9 18 C-8.67 17.01 -8.34 16.02 -8 15 C-7.34 15 -6.68 15 -6 15 C-5.81824219 14.33613281 -5.63648438 13.67226562 -5.44921875 12.98828125 C-4.10476709 8.26546387 -2.85015263 4.07164661 0 0 Z " fill="#060D12" transform="translate(437,92)"/>
<path d="M0 0 C3.75 0.75 3.75 0.75 5.296875 2.4140625 C6.87266646 4.81163768 8.30240962 7.27309284 9.75 9.75 C11.02719921 11.57272357 12.31873916 13.38548956 13.625 15.1875 C16.75 19.50974026 16.75 19.50974026 16.75 21.75 C18.07 22.41 19.39 23.07 20.75 23.75 C20.42 24.74 20.09 25.73 19.75 26.75 C20.41 26.75 21.07 26.75 21.75 26.75 C22.08 27.74 22.41 28.73 22.75 29.75 C23.41 29.75 24.07 29.75 24.75 29.75 C24.8428125 28.7290625 24.8428125 28.7290625 24.9375 27.6875 C25.82739544 24.47018573 27.34098165 22.37036534 29.33984375 19.73046875 C31.80710196 16.26537204 33.75213753 12.49918021 35.75 8.75 C36.41 8.75 37.07 8.75 37.75 8.75 C38.03875 7.96625 38.3275 7.1825 38.625 6.375 C39.75 3.75 39.75 3.75 41.75 1.75 C45.375 1.625 45.375 1.625 48.75 1.75 C46.5721978 7.72326235 43.1251118 12.90685611 39.72045898 18.2355957 C38.9469759 19.45591489 38.18394115 20.68291816 37.43139648 21.91625977 C36.3384205 23.70630255 35.21464247 25.47312363 34.08203125 27.23828125 C33.08780151 28.82443237 33.08780151 28.82443237 32.07348633 30.44262695 C29.75 32.75 29.75 32.75 26.10424805 33.03198242 C24.99734619 32.93892822 23.89044434 32.84587402 22.75 32.75 C21.76 33.245 21.76 33.245 20.75 33.75 C20.75 34.74 20.75 35.73 20.75 36.75 C15.57064292 35.02354764 13.77927493 30.24494653 11.125 25.6875 C10.20847656 24.12322266 10.20847656 24.12322266 9.2734375 22.52734375 C7.75 19.75 7.75 19.75 6.75 16.75 C5.76 16.42 4.77 16.09 3.75 15.75 C2.25 13.5 2.25 13.5 0.75 10.75 C-1.1203406 7.3989731 -1.9999546 5.91669693 -5.25 3.75 C-3.25 0.75 -3.25 0.75 0 0 Z " fill="#0C1217" transform="translate(175.25,91.25)"/>
<path d="M0 0 C1.98 0 3.96 0 6 0 C6.16961386 2.04142394 6.33555596 4.08315311 6.5 6.125 C6.5928125 7.26195312 6.685625 8.39890625 6.78125 9.5703125 C7.33939394 18.32121212 7.33939394 18.32121212 6 21 C7.65 21 9.3 21 11 21 C11.33 20.34 11.66 19.68 12 19 C12 19.66 12 20.32 12 21 C12.88260498 20.9592334 13.76520996 20.9184668 14.67456055 20.87646484 C17.96368644 20.72980076 21.25291994 20.59304506 24.54272461 20.46289062 C25.96379001 20.40465687 27.38470165 20.3425309 28.80541992 20.27636719 C30.8530679 20.18169485 32.900869 20.10124771 34.94921875 20.0234375 C36.17987061 19.97106934 37.41052246 19.91870117 38.6784668 19.86474609 C41.95187718 19.99804042 44.07690172 20.57847669 47 22 C46.01 22.495 46.01 22.495 45 23 C45 24.32 45 25.64 45 27 C29.9324543 28.17998852 15.08402823 27.77883813 0 27 C-0.85031102 24.04502142 -1.12847103 21.41081128 -1.1328125 18.33984375 C-1.13410156 17.46392578 -1.13539063 16.58800781 -1.13671875 15.68554688 C-1.13285156 14.77869141 -1.12898437 13.87183594 -1.125 12.9375 C-1.12886719 12.02677734 -1.13273438 11.11605469 -1.13671875 10.17773438 C-1.13542969 9.30310547 -1.13414062 8.42847656 -1.1328125 7.52734375 C-1.13168457 6.73062256 -1.13055664 5.93390137 -1.12939453 5.11303711 C-1 3 -1 3 0 0 Z " fill="#0D181F" transform="translate(773,128)"/>
<path d="M0 0 C2.31 0 4.62 0 7 0 C7 5.94 7 11.88 7 18 C16.57 18 26.14 18 36 18 C36.495 19.485 36.495 19.485 37 21 C36.34 22.32 35.68 23.64 35 25 C25.76 25 16.52 25 7 25 C6.34 23.68 5.68 22.36 5 21 C4.01 21.33 3.02 21.66 2 22 C2 22.99 2 23.98 2 25 C1.34 25 0.68 25 0 25 C-1.20901003 20.26950838 -1.14820502 15.65848068 -1.125 10.8125 C-1.12886719 9.99330078 -1.13273438 9.17410156 -1.13671875 8.33007812 C-1.12671604 2.25343208 -1.12671604 2.25343208 0 0 Z " fill="#0B171B" transform="translate(773,102)"/>
<path d="M0 0 C1.03125 0.17144531 2.0625 0.34289062 3.125 0.51953125 C5.71861015 1.12212274 7.69953996 1.87690137 10 3.1875 C10 3.8475 10 4.5075 10 5.1875 C10.61875 5.47625 11.2375 5.765 11.875 6.0625 C14 7.1875 14 7.1875 16 9.1875 C16 10.1775 16 11.1675 16 12.1875 C13 14.1875 13 14.1875 11.125 14.0625 C8.33350305 12.91306008 6.34979847 11.06733878 4 9.1875 C0.44523013 7.93287534 -3.13396649 7.9857714 -6.875 7.9375 C-8.06867187 7.91171875 -9.26234375 7.8859375 -10.4921875 7.859375 C-15.27061195 8.30635457 -18.6050909 9.7925909 -22 13.1875 C-23.98821313 13.58514263 -25.98944339 13.92525349 -28 14.1875 C-28.33 12.5375 -28.66 10.8875 -29 9.1875 C-28.34 9.1875 -27.68 9.1875 -27 9.1875 C-26.79375 8.424375 -26.5875 7.66125 -26.375 6.875 C-24.49533653 3.2011123 -22.85700838 2.5900485 -19 1.1875 C-16.71402118 0.81508751 -14.4579899 0.56861505 -12.1484375 0.3984375 C-10.01540451 0.2593661 -10.01540451 0.2593661 -8.1015625 -0.38671875 C-5.22808646 -0.9688914 -2.87991224 -0.50038475 0 0 Z " fill="#060E12" transform="translate(683,90.8125)"/>
<path d="M0 0 C2.475 0.495 2.475 0.495 5 1 C4.67 1.66 4.34 2.32 4 3 C3.84932786 4.4465242 3.75138964 5.8987934 3.68359375 7.3515625 C3.64169922 8.20234375 3.59980469 9.053125 3.55664062 9.9296875 C3.51732422 10.81914063 3.47800781 11.70859375 3.4375 12.625 C3.39431641 13.5221875 3.35113281 14.419375 3.30664062 15.34375 C3.20043139 17.56234283 3.09838806 19.7810488 3 22 C2.67 22 2.34 22 2 22 C1.74299575 25.08405098 1.7446247 26.60028213 3.4375 29.25 C4.27198307 30.18462104 5.11403203 31.11403203 6 32 C6.33 30.35 6.66 28.7 7 27 C8.48828125 28.05078125 8.48828125 28.05078125 10 30 C10.29296875 33.35546875 10.29296875 33.35546875 10.1875 37.1875 C10.16042969 38.45980469 10.13335937 39.73210937 10.10546875 41.04296875 C10.07066406 42.01878906 10.03585937 42.99460938 10 44 C9.34 44 8.68 44 8 44 C8 48.95 8 53.9 8 59 C8.66 59.33 9.32 59.66 10 60 C9.34 60.99 8.68 61.98 8 63 C4.92078868 63.25660094 2.78863007 63.39431504 0 62 C0 55 0 48 0 41 C0.66 41 1.32 41 2 41 C2 38.36 2 35.72 2 33 C1.34 33 0.68 33 0 33 C0 22 0 11 0 0 Z M1 5 C2 7 2 7 2 7 Z M1 55 C2 59 2 59 2 59 Z " fill="#0E161C" transform="translate(292,92)"/>
<path d="M0 0 C21.708406 -0.51482386 21.708406 -0.51482386 30 6 C30.639375 6.495 31.27875 6.99 31.9375 7.5 C33 9 33 9 32.6875 11.1875 C32.460625 11.785625 32.23375 12.38375 32 13 C30.25 13.6875 30.25 13.6875 28 14 C26.64879295 13.02428627 25.31791033 12.02024024 24 11 C16.92988366 7.1183675 10.87970133 6.23792506 3 8 C-0.36878771 9.30719263 -0.36878771 9.30719263 -3 11 C-3.763125 11.350625 -4.52625 11.70125 -5.3125 12.0625 C-7.18189338 12.89321682 -7.18189338 12.89321682 -8 15 C-9.32 14.67 -10.64 14.34 -12 14 C-10.67736791 8.31268201 -8.63827986 6.2467959 -4 3 C-1.625 2.1875 -1.625 2.1875 0 2 C0 1.34 0 0.68 0 0 Z " fill="#121C22" transform="translate(69,91)"/>
<path d="M0 0 C2.0625 0.4375 2.0625 0.4375 4 1 C4 1.66 4 2.32 4 3 C4.99 3 5.98 3 7 3 C6.67 5.97 6.34 8.94 6 12 C5.34 12 4.68 12 4 12 C4 14.31 4 16.62 4 19 C-1.33323383 20.18300823 -6.56111917 20.74634485 -12 20 C-14.25 17.9375 -14.25 17.9375 -15 15 C-14.6875 11.5 -14.6875 11.5 -14 8 C-13.96454703 6.33371045 -13.94951812 4.66590197 -14 3 C-12.68 2.34 -11.36 1.68 -10 1 C-9.4225 1.804375 -8.845 2.60875 -8.25 3.4375 C-6.01873107 5.97866739 -5.25543229 6.65120368 -2 7 C-1.855625 6.030625 -1.71125 5.06125 -1.5625 4.0625 C-1 1 -1 1 0 0 Z " fill="#0E101C" transform="translate(348,184)"/>
<path d="M0 0 C0 0.66 0 1.32 0 2 C0.515625 2.45375 1.03125 2.9075 1.5625 3.375 C2.036875 3.91125 2.51125 4.4475 3 5 C2.6875 7 2.6875 7 2 9 C2 9.99 2 10.98 2 12 C1.1875 14.125 1.1875 14.125 0 16 C-0.99 16.33 -1.98 16.66 -3 17 C-3.33 17.66 -3.66 18.32 -4 19 C-8.59334282 19.32046578 -11.43810319 19.05305441 -15 16 C-15.8125 12.8125 -15.8125 12.8125 -16 10 C-15.34 10 -14.68 10 -14 10 C-14.185625 9.2575 -14.37125 8.515 -14.5625 7.75 C-15.01156207 4.92732414 -15.10840133 3.60369746 -14 1 C-11.85546875 -0.1171875 -11.85546875 -0.1171875 -9.1875 -0.875 C-8.31480469 -1.14054688 -7.44210937 -1.40609375 -6.54296875 -1.6796875 C-3.6253103 -2.04719594 -2.44045169 -1.55870341 0 0 Z M-8 4 C-8.33 5.98 -8.66 7.96 -9 10 C-7.35 10 -5.7 10 -4 10 C-4.33 8.02 -4.66 6.04 -5 4 C-5.99 4 -6.98 4 -8 4 Z M-4 10 C-3 13 -3 13 -3 13 Z " fill="#151718" transform="translate(532,186)"/>
<path d="M0 0 C1.69141656 0.08963062 3.37959602 0.24577676 5.0625 0.4375 C6.44115234 0.59025391 6.44115234 0.59025391 7.84765625 0.74609375 C8.55792969 0.82988281 9.26820313 0.91367188 10 1 C10.33 1.99 10.66 2.98 11 4 C11.66 4.33 12.32 4.66 13 5 C13.625 8.0625 13.625 8.0625 14 11 C13.34 11 12.68 11 12 11 C11.9175 11.763125 11.835 12.52625 11.75 13.3125 C10.83456067 16.59282427 9.91528755 17.3341214 7 19 C3.09060731 20.75248638 -0.08656198 19.2793932 -4 18 C-3.67 16.68 -3.34 15.36 -3 14 C-3.99 13.67 -4.98 13.34 -6 13 C-5.67 10.69 -5.34 8.38 -5 6 C-4.34 6 -3.68 6 -3 6 C-2.690625 5.195625 -2.38125 4.39125 -2.0625 3.5625 C-1 1 -1 1 0 0 Z M2 9 C1.34 10.65 0.68 12.3 0 14 C0.66 14 1.32 14 2 14 C2 14.66 2 15.32 2 16 C3.65 15.67 5.3 15.34 7 15 C7.33 14.01 7.66 13.02 8 12 C7.34 12 6.68 12 6 12 C6 11.34 6 10.68 6 10 C4.68 9.67 3.36 9.34 2 9 Z " fill="#10102C" transform="translate(619,184)"/>
<path d="M0 0 C1.93681161 -0.08107583 3.8745934 -0.13922475 5.8125 -0.1875 C6.89144531 -0.22230469 7.97039062 -0.25710937 9.08203125 -0.29296875 C12 0 12 0 13.87109375 1.29296875 C15.72411528 4.09494249 15.23261309 6.74341673 15 10 C14.67 10.99 14.34 11.98 14 13 C13.64456573 15.33006911 13.3086247 17.66327016 13 20 C11.35 19.67 9.7 19.34 8 19 C7.67 17.02 7.34 15.04 7 13 C5.35 13.66 3.7 14.32 2 15 C2 16.65 2 18.3 2 20 C1.01 20 0.02 20 -1 20 C-1 18.68 -1 17.36 -1 16 C-1.66 16 -2.32 16 -3 16 C-2.69177379 13.7077546 -2.37829126 11.41621545 -2.0625 9.125 C-1.88847656 7.84882813 -1.71445312 6.57265625 -1.53515625 5.2578125 C-1 2 -1 2 0 0 Z M2 3 C3 6 3 6 3 6 Z M9 14 C10 17 10 17 10 17 Z " fill="#1D3344" transform="translate(287,183)"/>
<path d="M0 0 C2.92125488 2.06206227 3.26372345 4.04165329 3.90234375 7.4765625 C4.20106969 10.19129999 4.15958776 11.94801686 3.125 14.5 C0.6875 17.3125 0.6875 17.3125 -1.875 19.5 C-2.535 19.5 -3.195 19.5 -3.875 19.5 C-3.875 18.84 -3.875 18.18 -3.875 17.5 C-4.968125 17.396875 -6.06125 17.29375 -7.1875 17.1875 C-10.875 16.5 -10.875 16.5 -12.75 15.25 C-14.16535995 13.04832896 -14.52698447 11.07531492 -14.875 8.5 C-14.215 8.5 -13.555 8.5 -12.875 8.5 C-12.875 7.84 -12.875 7.18 -12.875 6.5 C-13.535 6.5 -14.195 6.5 -14.875 6.5 C-14.49620265 4.30297535 -13.97289619 2.66124078 -12.8125 0.75 C-8.95888652 -1.73620225 -4.30472846 -0.74864843 0 0 Z M-3.875 4.5 C-3.875 5.82 -3.875 7.14 -3.875 8.5 C-4.514375 8.62375 -5.15375 8.7475 -5.8125 8.875 C-6.8334375 9.184375 -6.8334375 9.184375 -7.875 9.5 C-8.205 10.16 -8.535 10.82 -8.875 11.5 C-7.885 12.985 -7.885 12.985 -6.875 14.5 C-3.88167261 13.5022242 -2.92733685 12.7477975 -0.875 10.5 C-1.77267656 7.3684413 -1.77267656 7.3684413 -3.875 4.5 Z " fill="#1C2223" transform="translate(727.875,185.5)"/>
<path d="M0 0 C1.32 0 2.64 0 4 0 C4 0.66 4 1.32 4 2 C5.65 2 7.3 2 9 2 C9.06058594 2.77085937 9.12117188 3.54171875 9.18359375 4.3359375 C9.30927734 5.84027344 9.30927734 5.84027344 9.4375 7.375 C9.51871094 8.37273437 9.59992188 9.37046875 9.68359375 10.3984375 C9.84965626 12.97927613 9.84965626 12.97927613 11 15 C10.3125 17.5625 10.3125 17.5625 9 20 C6.875 20.8125 6.875 20.8125 5 21 C4.34 18.69 3.68 16.38 3 14 C1.35 14.33 -0.3 14.66 -2 15 C-2 16.65 -2 18.3 -2 20 C-2.99 20 -3.98 20 -5 20 C-7.29612756 8.47835991 -7.29612756 8.47835991 -7 3 C-5.7934375 2.7834375 -5.7934375 2.7834375 -4.5625 2.5625 C-2.07896294 2.25864751 -2.07896294 2.25864751 -1 1 C-0.67 0.67 -0.34 0.34 0 0 Z M5 4 C6 7 6 7 6 7 Z M-2 7 C-1 9 -1 9 -1 9 Z " fill="#121B23" transform="translate(147,183)"/>
<path d="M0 0 C9.9389332 -0.6168993 9.9389332 -0.6168993 13.6875 1.5625 C15.47674327 4.88538036 15.41275616 7.28519457 15 11 C14.34 11.66 13.68 12.32 13 13 C13.66 13.33 14.32 13.66 15 14 C15.33 13.34 15.66 12.68 16 12 C15.67 14.31 15.34 16.62 15 19 C13.02 18.67 11.04 18.34 9 18 C8.67 17.01 8.34 16.02 8 15 C7.34 15 6.68 15 6 15 C5.67 16.32 5.34 17.64 5 19 C3.68 19 2.36 19 1 19 C0.63528645 16.77253461 0.28364028 14.54292708 -0.0625 12.3125 C-0.25972656 11.07113281 -0.45695312 9.82976562 -0.66015625 8.55078125 C-0.96752656 5.33929143 -0.84273231 3.08216081 0 0 Z M7 7 C8 9 8 9 8 9 Z M8 13 C9 15 9 15 9 15 Z " fill="#0C131A" transform="translate(468,184)"/>
<path d="M0 0 C4 0 8 0 12 0 C14.12202788 3.41299541 14.08185762 5.62716134 13.5625 9.5625 C13.01071775 13.83531616 13.01071775 13.83531616 14 18 C13.34 18 12.68 18 12 18 C12 18.66 12 19.32 12 20 C6.06 19.01 6.06 19.01 0 18 C-1.93703061 12.18890818 -1.21715636 5.93363723 0 0 Z M3 14 C3.33 14.99 3.66 15.98 4 17 C4.66 16.34 5.32 15.68 6 15 C5.01 14.67 4.02 14.34 3 14 Z " fill="#1F1F21" transform="translate(94,185)"/>
<path d="M0 0 C1.670625 0.061875 1.670625 0.061875 3.375 0.125 C1.28945216 5.88274004 -2.07053839 10.68354739 -5.44702148 15.75610352 C-6.56618979 17.44306175 -7.66890826 19.14005568 -8.77148438 20.83789062 C-9.47466797 21.89814453 -10.17785156 22.95839844 -10.90234375 24.05078125 C-11.54421631 25.02442627 -12.18608887 25.99807129 -12.84741211 27.0012207 C-13.72731812 28.05249146 -13.72731812 28.05249146 -14.625 29.125 C-17.625 29.125 -17.625 29.125 -20.625 27.125 C-19.28853101 23.54403045 -17.68641981 20.38023836 -15.6875 17.125 C-14.93146484 15.8875 -14.93146484 15.8875 -14.16015625 14.625 C-13.65355469 13.8 -13.14695313 12.975 -12.625 12.125 C-12.10808594 11.196875 -11.59117187 10.26875 -11.05859375 9.3125 C-10.34896484 8.2296875 -10.34896484 8.2296875 -9.625 7.125 C-8.965 7.125 -8.305 7.125 -7.625 7.125 C-7.33625 6.34125 -7.0475 5.5575 -6.75 4.75 C-5.03445953 0.74707223 -4.4540118 0.15358661 0 0 Z " fill="#12181E" transform="translate(220.625,92.875)"/>
<path d="M0 0 C0.5775 0.804375 1.155 1.60875 1.75 2.4375 C4.57405679 5.6537869 6.89680168 6.07097397 11 7 C11.33 7.33 11.66 7.66 12 8 C14.01594582 8.23427778 16.038474 8.41336124 18.0625 8.5625 C19.16722656 8.64628906 20.27195312 8.73007813 21.41015625 8.81640625 C22.69212891 8.90728516 22.69212891 8.90728516 24 9 C24.38218767 10.65614657 24.71395102 12.32457024 25 14 C22.74816416 16.25183584 18.11505682 15.31037161 15.08081055 15.31689453 C8.90243441 15.19834698 3.41299908 14.14147268 -2 11 C-4.8273121 7.90968212 -5.88923288 6.27382188 -6.25 2.125 C-6.1675 1.42375 -6.085 0.7225 -6 0 C-3 -1 -3 -1 0 0 Z " fill="#0A0F1C" transform="translate(658,141)"/>
<path d="M0 0 C2.375 0.25 2.375 0.25 5 1 C6.3125 3.0625 6.3125 3.0625 7 5 C7.99 5 8.98 5 10 5 C10 4.34 10 3.68 10 3 C10.99 3 11.98 3 13 3 C12.34 4.32 11.68 5.64 11 7 C11.639375 7.226875 12.27875 7.45375 12.9375 7.6875 C15 9 15 9 15.5625 11.4375 C15.706875 12.283125 15.85125 13.12875 16 14 C17.35405861 15.60411246 17.35405861 15.60411246 19 17 C20.75 18.9375 20.75 18.9375 22 21 C21.6875 23.25 21.6875 23.25 21 25 C15.45241326 25.36983912 15.45241326 25.36983912 13.48046875 23.7578125 C11.84893048 21.82062986 10.48880752 19.82167447 9.125 17.6875 C4.9752543 10.90600333 4.9752543 10.90600333 -1 6 C-0.67 4.02 -0.34 2.04 0 0 Z " fill="#13191C" transform="translate(322,130)"/>
<path d="M0 0 C2.01953125 0.0703125 2.01953125 0.0703125 4 1 C5.01171875 3.1796875 5.01171875 3.1796875 5.6875 5.875 C5.91824219 6.75929687 6.14898437 7.64359375 6.38671875 8.5546875 C6.58910156 9.36164063 6.79148437 10.16859375 7 11 C7.33 11.99 7.66 12.98 8 14 C6.57525111 18.36557671 4.15744406 21.32144233 0.21484375 23.6328125 C-2.49593473 24.85703504 -5.20573971 25.98212585 -8 27 C-8.99 25.68 -9.98 24.36 -11 23 C-11.33 23.66 -11.66 24.32 -12 25 C-12.66 25 -13.32 25 -14 25 C-14.33 23.35 -14.66 21.7 -15 20 C-14.40832031 19.92523438 -13.81664063 19.85046875 -13.20703125 19.7734375 C-9.11616432 19.0927386 -5.85176223 18.47456215 -2.9375 15.375 C-0.47894627 11.09235801 -0.58189056 8.85006956 -1 4 C-1.66 4 -2.32 4 -3 4 C-2 2 -2 2 0 0 Z M-8 21 C-8.66 21.66 -9.32 22.32 -10 23 C-9.01 23 -8.02 23 -7 23 C-7.33 22.34 -7.66 21.68 -8 21 Z " fill="#0F191E" transform="translate(98,129)"/>
<path d="M0 0 C0.66 -0.33 1.32 -0.66 2 -1 C4.58675384 2.88013076 3.79830401 4.52949754 3 9 C3 9.99 3 10.98 3 12 C2.36893571 14.01151741 1.70626239 16.01363702 1 18 C-4.44893869 19.19876651 -7.22169095 18.91360308 -12 16 C-12 14.68 -12 13.36 -12 12 C-12.66 12 -13.32 12 -14 12 C-13.58634898 6.72594947 -12.71026864 3.82270102 -9 0 C-5.95751583 -1.52124209 -3.29979168 -0.47139881 0 0 Z M-5 3 C-5 3.66 -5 4.32 -5 5 C-5.66 5 -6.32 5 -7 5 C-7.41870553 7.33071879 -7.41870553 7.33071879 -7 10 C-4.60140956 12.33630748 -4.60140956 12.33630748 -2 14 C-1.67 12.68 -1.34 11.36 -1 10 C-0.34 10 0.32 10 1 10 C0.65555119 7.52733235 0.65555119 7.52733235 0 5 C-0.66 4.67 -1.32 4.34 -2 4 C-2.99 4.495 -2.99 4.495 -4 5 C-4.33 4.34 -4.66 3.68 -5 3 Z " fill="#1B202A" transform="translate(678,186)"/>
<path d="M0 0 C1.20720703 -0.00128906 2.41441406 -0.00257812 3.65820312 -0.00390625 C5.55795898 0.00189453 5.55795898 0.00189453 7.49609375 0.0078125 C8.76646484 0.00394531 10.03683594 0.00007813 11.34570312 -0.00390625 C13.15458008 -0.00197266 13.15458008 -0.00197266 15 0 C16.11318604 0.00112793 17.22637207 0.00225586 18.37329102 0.00341797 C20.93359375 0.1328125 20.93359375 0.1328125 21.93359375 1.1328125 C21.97440158 3.13239614 21.97613731 5.13326504 21.93359375 7.1328125 C11.82321594 7.86300645 2.03445506 8.42017718 -8.06640625 7.1328125 C-8.06640625 5.1528125 -8.06640625 3.1728125 -8.06640625 1.1328125 C-5.31285665 -0.2439623 -3.07800216 0.00311561 0 0 Z " fill="#122C2F" transform="translate(796.06640625,91.8671875)"/>
<path d="M0 0 C1.96600897 0.14965143 3.92508344 0.39524632 5.875 0.6875 C7.47988281 0.90986328 7.47988281 0.90986328 9.1171875 1.13671875 C12 2 12 2 13.8671875 3.8671875 C15 6 15 6 15.25 9.4375 C13.62543561 14.06750852 11.57515579 14.93273215 7.32421875 17.0546875 C5 18 5 18 1 19 C1 15.7 1 12.4 1 9 C0.34 9 -0.32 9 -1 9 C-1 7.35 -1 5.7 -1 4 C-0.34 4 0.32 4 1 4 C1 3.34 1 2.68 1 2 C0.34 1.67 -0.32 1.34 -1 1 C-0.67 0.67 -0.34 0.34 0 0 Z M6 7 C6 7.66 6 8.32 6 9 C6.66 9 7.32 9 8 9 C8 8.34 8 7.68 8 7 C7.34 7 6.68 7 6 7 Z " fill="#120A0E" transform="translate(421,184)"/>
<path d="M0 0 C2.31 0 4.62 0 7 0 C7 8.58 7 17.16 7 26 C2 27 2 27 0 26 C-0.19625099 22.04204914 -0.38051982 18.08363065 -0.5625 14.125 C-0.61857422 12.99707031 -0.67464844 11.86914062 -0.73242188 10.70703125 C-0.80493164 9.09248047 -0.80493164 9.09248047 -0.87890625 7.4453125 C-0.9260376 6.45031738 -0.97316895 5.45532227 -1.02172852 4.43017578 C-1 2 -1 2 0 0 Z " fill="#0C1219" transform="translate(195,129)"/>
<path d="M0 0 C19.42313324 1.61859444 19.42313324 1.61859444 26.6953125 8.40234375 C30.35576493 12.88475406 30.18615737 16.41527891 30 22 C28.03698408 18.49461443 27.04097612 14.86648272 26 11 C25.01 11 24.02 11 23 11 C22.34 11.66 21.68 12.32 21 13 C16.32307692 11.52307692 16.32307692 11.52307692 14.6875 8.875 C14.460625 8.25625 14.23375 7.6375 14 7 C13.01 7.495 13.01 7.495 12 8 C10.28766312 7.9129796 8.57824594 7.75902838 6.875 7.5625 C5.96492188 7.46066406 5.05484375 7.35882813 4.1171875 7.25390625 C3.41851562 7.17011719 2.71984375 7.08632812 2 7 C1.34 4.69 0.68 2.38 0 0 Z " fill="#0C131C" transform="translate(75,119)"/>
<path d="M0 0 C2.64 0.99 5.28 1.98 8 3 C8 3.66 8 4.32 8 5 C7.34 5 6.68 5 6 5 C6.268125 5.53625 6.53625 6.0725 6.8125 6.625 C7 9 7 9 4.625 11.9375 C3.92697266 12.69740234 3.92697266 12.69740234 3.21484375 13.47265625 C1.58158955 15.52604014 1.22769832 17.41941901 1 20 C0.01 20 -0.98 20 -2 20 C-2.4640625 18.824375 -2.4640625 18.824375 -2.9375 17.625 C-3.92875038 15.07669872 -3.92875038 15.07669872 -5 13 C-4.67 12.34 -4.34 11.68 -4 11 C-4.66 11 -5.32 11 -6 11 C-6.12375 10.21625 -6.2475 9.4325 -6.375 8.625 C-6.79117993 5.85942178 -6.79117993 5.85942178 -9 4 C-7.68 3.34 -6.36 2.68 -5 2 C-4.34 3.32 -3.68 4.64 -3 6 C-2.34 5.67 -1.68 5.34 -1 5 C-0.34444881 2.47266765 -0.34444881 2.47266765 0 0 Z " fill="#2C4735" transform="translate(197,183)"/>
<path d="M0 0 C2.31 0 4.62 0 7 0 C7.05390357 2.93774463 7.0936255 5.87450232 7.125 8.8125 C7.14175781 9.64587891 7.15851562 10.47925781 7.17578125 11.33789062 C7.18222656 12.14033203 7.18867187 12.94277344 7.1953125 13.76953125 C7.20578613 14.50792236 7.21625977 15.24631348 7.22705078 16.00708008 C7 18 7 18 5 21 C4.01 21.33 3.02 21.66 2 22 C2 22.99 2 23.98 2 25 C1.34 25 0.68 25 0 25 C-1.20901003 20.26950838 -1.14820502 15.65848068 -1.125 10.8125 C-1.12886719 9.99330078 -1.13273438 9.17410156 -1.13671875 8.33007812 C-1.12671604 2.25343208 -1.12671604 2.25343208 0 0 Z " fill="#0E2936" transform="translate(773,102)"/>
<path d="M0 0 C0.66 0 1.32 0 2 0 C2 0.66 2 1.32 2 2 C4.64 2 7.28 2 10 2 C10 3.32 10 4.64 10 6 C9.34 6 8.68 6 8 6 C7.22887459 10.72314313 6.90235126 15.21521178 7 20 C5.35 20.33 3.7 20.66 2 21 C1.14256349 16.60563789 0.91051442 12.47427924 1 8 C0.071875 7.9071875 0.071875 7.9071875 -0.875 7.8125 C-3 7 -3 7 -4.25 4.4375 C-4.4975 3.633125 -4.745 2.82875 -5 2 C-3.35 1.67 -1.7 1.34 0 1 C0 0.67 0 0.34 0 0 Z M2 7 C2 8.98 2 10.96 2 13 C2.33 13 2.66 13 3 13 C3 11.02 3 9.04 3 7 C2.67 7 2.34 7 2 7 Z " fill="#33343E" transform="translate(240,183)"/>
<path d="M0 0 C-1.25 2.5 -1.25 2.5 -3 5 C-4.32 5 -5.64 5 -7 5 C-7 4 -7 3 -7 2 C-9.64 2.66 -12.28 3.32 -15 4 C-14.67 5.65 -14.34 7.3 -14 9 C-14.78375 9.28875 -15.5675 9.5775 -16.375 9.875 C-19.09671632 10.84912254 -19.09671632 10.84912254 -21 13 C-22.98821313 13.39764263 -24.98944339 13.73775349 -27 14 C-27.33 12.35 -27.66 10.7 -28 9 C-27.34 9 -26.68 9 -26 9 C-25.79375 8.236875 -25.5875 7.47375 -25.375 6.6875 C-23.49533653 3.0136123 -21.85700838 2.4025485 -18 1 C-15.71402118 0.62758751 -13.4579899 0.38111505 -11.1484375 0.2109375 C-8.98768312 0.05583449 -8.98768312 0.05583449 -6.8984375 -0.55078125 C-4.38638261 -1.14519753 -2.47497405 -0.61874351 0 0 Z " fill="#06304A" transform="translate(682,91)"/>
<path d="M0 0 C0 0.66 0 1.32 0 2 C2.64 2 5.28 2 8 2 C8.33 2.99 8.66 3.98 9 5 C8.34 5 7.68 5 7 5 C7 5.66 7 6.32 7 7 C6.34 7 5.68 7 5 7 C4.89042969 7.91523438 4.78085937 8.83046875 4.66796875 9.7734375 C4.50941406 10.96195313 4.35085938 12.15046875 4.1875 13.375 C4.03667969 14.55835938 3.88585937 15.74171875 3.73046875 16.9609375 C3 20 3 20 0 22 C0 18.37 0 14.74 0 11 C-1.32 10.34 -2.64 9.68 -4 9 C-6.35953094 6.64046906 -6.49141413 5.22104383 -7 2 C-2.25 0 -2.25 0 0 0 Z " fill="#1C2221" transform="translate(573,183)"/>
<path d="M0 0 C1.485 0.99 1.485 0.99 3 2 C3 2.66 3 3.32 3 4 C4.65 3.34 6.3 2.68 8 2 C8 5.96 8 9.92 8 14 C8.66 14.33 9.32 14.66 10 15 C9.01 16.485 9.01 16.485 8 18 C4.92078868 18.25660094 2.78863007 18.39431504 0 17 C0 11.39 0 5.78 0 0 Z M1 10 C2 14 2 14 2 14 Z " fill="#081013" transform="translate(292,137)"/>
<path d="M0 0 C1.5 1.375 1.5 1.375 3 3 C3 3.66 3 4.32 3 5 C4.32 5.66 5.64 6.32 7 7 C6.67 7.99 6.34 8.98 6 10 C6.66 10 7.32 10 8 10 C8.33 10.99 8.66 11.98 9 13 C10.32 12.67 11.64 12.34 13 12 C13.99 13.32 14.98 14.64 16 16 C14.88625 15.979375 13.7725 15.95875 12.625 15.9375 C9.16784079 15.73619282 9.16784079 15.73619282 7 17 C7 17.99 7 18.98 7 20 C3.55815706 18.85271902 2.91992283 17.96715346 1 15 C0.67 14.01 0.34 13.02 0 12 C0.66 11.34 1.32 10.68 2 10 C0.73025028 5.58477891 0.73025028 5.58477891 -2 2 C-1.34 1.34 -0.68 0.68 0 0 Z " fill="#0D2028" transform="translate(189,108)"/>
<path d="M0 0 C1.96371945 2.94557917 3.29765337 5.75038726 4.6875 9 C5.37392578 10.5778125 5.37392578 10.5778125 6.07421875 12.1875 C7 15 7 15 6 18 C4.02 18.33 2.04 18.66 0 19 C-0.78143056 16.65570833 -1.43549635 14.39914051 -2 12 C-2.185625 11.21625 -2.37125 10.4325 -2.5625 9.625 C-3.04821661 6.71070031 -3.06858805 3.94928626 -3 1 C-2.01 0.67 -1.02 0.34 0 0 Z " fill="#162129" transform="translate(447,116)"/>
<path d="M0 0 C1.98 0.495 1.98 0.495 4 1 C3.34 1.66 2.68 2.32 2 3 C2.99 3 3.98 3 5 3 C6.68236471 3.62599617 8.3523962 4.28752268 10 5 C9.67 5.66 9.34 6.32 9 7 C8.34 7 7.68 7 7 7 C7 7.66 7 8.32 7 9 C6.34 9 5.68 9 5 9 C4.67 9.99 4.34 10.98 4 12 C5.32 12 6.64 12 8 12 C8 12.99 8 13.98 8 15 C7.34 15 6.68 15 6 15 C5.67 16.32 5.34 17.64 5 19 C3.68 19 2.36 19 1 19 C0.63528645 16.77253461 0.28364028 14.54292708 -0.0625 12.3125 C-0.25972656 11.07113281 -0.45695312 9.82976562 -0.66015625 8.55078125 C-0.96752656 5.33929143 -0.84273231 3.08216081 0 0 Z " fill="#151724" transform="translate(468,184)"/>
<path d="M0 0 C2.625 0.25 2.625 0.25 4.4375 1.75 C4.829375 2.245 5.22125 2.74 5.625 3.25 C4.965 4.57 4.305 5.89 3.625 7.25 C3.625 6.59 3.625 5.93 3.625 5.25 C1.975 5.25 0.325 5.25 -1.375 5.25 C-1.375 6.57 -1.375 7.89 -1.375 9.25 C-2.035 9.25 -2.695 9.25 -3.375 9.25 C-2.715 12.22 -2.055 15.19 -1.375 18.25 C-3.025 17.92 -4.675 17.59 -6.375 17.25 C-6.045 16.26 -5.715 15.27 -5.375 14.25 C-6.365 13.92 -7.355 13.59 -8.375 13.25 C-8.045 10.94 -7.715 8.63 -7.375 6.25 C-6.715 6.25 -6.055 6.25 -5.375 6.25 C-5.065625 5.445625 -4.75625 4.64125 -4.4375 3.8125 C-2.98708054 0.31442953 -2.98708054 0.31442953 0 0 Z " fill="#080A10" transform="translate(621.375,183.75)"/>
<path d="M0 0 C1.32 0 2.64 0 4 0 C5.60116168 4.80348505 5.6117046 10.1648862 4 15 C6.31 15 8.62 15 11 15 C11 15.99 11 16.98 11 18 C7.37 18 3.74 18 0 18 C0 12.06 0 6.12 0 0 Z " fill="#060607" transform="translate(766,185)"/>
<path d="M0 0 C4.95 0 9.9 0 15 0 C15 0.33 15 0.66 15 1 C11.7 1 8.4 1 5 1 C5 1.66 5 2.32 5 3 C3.02 3.99 3.02 3.99 1 5 C1 5.66 1 6.32 1 7 C-1 8.33333333 -3 9.66666667 -5 11 C-5 11.66 -5 12.32 -5 13 C-5.66 13 -6.32 13 -7 13 C-7.33 13.66 -7.66 14.32 -8 15 C-9.32 14.67 -10.64 14.34 -12 14 C-10.67736791 8.31268201 -8.63827986 6.2467959 -4 3 C-1.625 2.1875 -1.625 2.1875 0 2 C0 1.34 0 0.68 0 0 Z " fill="#12191E" transform="translate(69,91)"/>
<path d="M0 0 C1.5562381 2.33435715 2.58126951 4.18475789 3.62109375 6.73046875 C3.91693359 7.45169922 4.21277344 8.17292969 4.51757812 8.91601562 C4.97293945 10.04040039 4.97293945 10.04040039 5.4375 11.1875 C5.73720703 11.91775391 6.03691406 12.64800781 6.34570312 13.40039062 C7.24212842 15.59575757 8.12243569 17.79703459 9 20 C9.30566895 20.74717285 9.61133789 21.4943457 9.92626953 22.26416016 C10.67698784 24.15354615 11.34573907 26.0750844 12 28 C11.67 28.66 11.34 29.32 11 30 C8.04465598 25.1083961 5.8925308 20.39371278 4 15 C3.34 15.66 2.68 16.32 2 17 C1.34 17.66 0.68 18.32 0 19 C-2.125 12.375 -2.125 12.375 -1 9 C-1.66 8.34 -2.32 7.68 -3 7 C-3 6.01 -3 5.02 -3 4 C-2.34 4 -1.68 4 -1 4 C-0.67 2.68 -0.34 1.36 0 0 Z " fill="#0C1D25" transform="translate(443,102)"/>
<path d="M0 0 C0.99 0.33 1.98 0.66 3 1 C4.59387389 9.92222886 4.59387389 9.92222886 2.3125 14.0625 C0.08277248 15.93065009 -1.14304048 16.69389719 -4 17 C-4 16.34 -4 15.68 -4 15 C-5.65 15 -7.3 15 -9 15 C-9.33 14.34 -9.66 13.68 -10 13 C-9.21625 12.731875 -8.4325 12.46375 -7.625 12.1875 C-4.71885077 11.15185568 -4.71885077 11.15185568 -3 8 C-2.34 8 -1.68 8 -1 8 C-1.020625 7.05125 -1.04125 6.1025 -1.0625 5.125 C-1 2 -1 2 0 0 Z " fill="#1A1A34" transform="translate(728,188)"/>
<path d="M0 0 C9.57 0 19.14 0 29 0 C25.34168482 1.82915759 24.16333626 2.24952131 20.33984375 2.30859375 C19.0259668 2.34629883 19.0259668 2.34629883 17.68554688 2.38476562 C15.84968143 2.41999545 14.01373506 2.45122899 12.17773438 2.47851562 C11.30310547 2.50494141 10.42847656 2.53136719 9.52734375 2.55859375 C8.33226196 2.57877563 8.33226196 2.57877563 7.11303711 2.59936523 C4.45579613 3.10318181 3.56046086 3.80662711 2 6 C1.62118689 7.97635769 1.62118689 7.97635769 1.77734375 10.125 C1.79603516 10.91390625 1.81472656 11.7028125 1.83398438 12.515625 C1.86814453 13.33546875 1.90230469 14.1553125 1.9375 15 C1.99753158 16.62468457 2.04868081 18.24972792 2.08984375 19.875 C2.11941162 20.59429687 2.14897949 21.31359375 2.17944336 22.0546875 C2 24 2 24 0 27 C0 18.09 0 9.18 0 0 Z " fill="#040A0E" transform="translate(536,124)"/>
<path d="M0 0 C2.6875 -0.25 2.6875 -0.25 5 0 C4.01 1.65 3.02 3.3 2 5 C3.65 5.33 5.3 5.66 7 6 C5.53092999 8.93814003 3.40552194 9.3286226 0.4375 10.625 C-0.57441406 11.07101563 -1.58632812 11.51703125 -2.62890625 11.9765625 C-3.41136719 12.31429687 -4.19382812 12.65203125 -5 13 C-5.99 11.68 -6.98 10.36 -8 9 C-8.33 9.66 -8.66 10.32 -9 11 C-9.66 11 -10.32 11 -11 11 C-11.33 9.35 -11.66 7.7 -12 6 C-11.07767578 5.85304687 -11.07767578 5.85304687 -10.13671875 5.703125 C-5.063599 4.95680573 -5.063599 4.95680573 -1.25 1.875 C-0.8375 1.25625 -0.425 0.6375 0 0 Z M-5 7 C-5.66 7.66 -6.32 8.32 -7 9 C-6.01 9 -5.02 9 -4 9 C-4.33 8.34 -4.66 7.68 -5 7 Z " fill="#1A2536" transform="translate(95,143)"/>
<path d="M0 0 C1.98 0 3.96 0 6 0 C6.33 0.66 6.66 1.32 7 2 C7.99 2.66 8.98 3.32 10 4 C11.01557588 7.3006216 11.1092904 8.67212881 10 12 C10.66 12.33 11.32 12.66 12 13 C4.40772818 11.56362425 4.40772818 11.56362425 1.875 8.0625 C0 5 0 5 -1 3 C-0.67 2.01 -0.34 1.02 0 0 Z " fill="#0A151F" transform="translate(56,141)"/>
<path d="M0 0 C1.67542976 0.28604898 3.34385343 0.61781233 5 1 C6.1875 4.25 6.1875 4.25 7 8 C5.68936945 10.76688673 4.77608543 11.69426938 1.9375 12.8125 C0 13 0 13 -2 12 C-2.73075648 9.6859378 -3.40138258 7.35171131 -4 5 C-3.34 5 -2.68 5 -2 5 C-1.7834375 4.0409375 -1.7834375 4.0409375 -1.5625 3.0625 C-1 1 -1 1 0 0 Z " fill="#0B1114" transform="translate(436,134)"/>
<path d="M0 0 C5.45705276 0.43656422 8.6694489 1.65366506 13 5 C13.8971875 5.61875 13.8971875 5.61875 14.8125 6.25 C16.82413564 9.21451569 16.71104815 12.47478745 17 16 C16.34 16 15.68 16 15 16 C15 14.02 15 12.04 15 10 C12.36 10 9.72 10 7 10 C6.34 8.68 5.68 7.36 5 6 C4.34 6 3.68 6 3 6 C3 5.34 3 4.68 3 4 C3.66 4 4.32 4 5 4 C5 3.34 5 2.68 5 2 C3.35 1.67 1.7 1.34 0 1 C0 0.67 0 0.34 0 0 Z " fill="#060E12" transform="translate(684,122)"/>
<path d="M0 0 C0.66 -0.33 1.32 -0.66 2 -1 C4 2 4 2 3.75 5.625 C3.5025 6.73875 3.255 7.8525 3 9 C2.01 9.495 2.01 9.495 1 10 C0.34 8.35 -0.32 6.7 -1 5 C-1.99 5 -2.98 5 -4 5 C-4.66 4.34 -5.32 3.68 -6 3 C-6.2475 3.639375 -6.495 4.27875 -6.75 4.9375 C-8 7 -8 7 -10.125 7.75 C-11.053125 7.87375 -11.053125 7.87375 -12 8 C-11.7095662 4.73261975 -11.51431765 2.6132249 -9.375 0.0625 C-6.02226709 -1.43740683 -3.54570824 -0.65661264 0 0 Z " fill="#070A0F" transform="translate(678,186)"/>
<path d="M0 0 C-0.33 1.32 -0.66 2.64 -1 4 C-0.01 4.33 0.98 4.66 2 5 C2 5.66 2 6.32 2 7 C-2.95 7.33 -7.9 7.66 -13 8 C-12.67 5.69 -12.34 3.38 -12 1 C-7.93631321 0.22596442 -4.13574827 -0.0984702 0 0 Z " fill="#1B1D25" transform="translate(785,92)"/>
<path d="M0 0 C9.24 0 18.48 0 28 0 C28 0.33 28 0.66 28 1 C19.42 1 10.84 1 2 1 C2 1.99 2 2.98 2 4 C9.26 4 16.52 4 24 4 C24.33 4.66 24.66 5.32 25 6 C16.75 6 8.5 6 0 6 C-1 3 -1 3 0 0 Z " fill="#070C12" transform="translate(536,93)"/>
<path d="M0 0 C0.33 0.66 0.66 1.32 1 2 C1.99 2.66 2.98 3.32 4 4 C2.68 4 1.36 4 0 4 C0 4.99 0 5.98 0 7 C0.99 7.33 1.98 7.66 3 8 C2.34 8 1.68 8 1 8 C0.67 11.3 0.34 14.6 0 18 C-0.99 18 -1.98 18 -3 18 C-5.29612756 6.47835991 -5.29612756 6.47835991 -5 1 C-3 0 -3 0 0 0 Z " fill="#04060B" transform="translate(145,185)"/>
<path d="M0 0 C4 0 8 0 12 0 C12.33 1.32 12.66 2.64 13 4 C11.68 4 10.36 4 9 4 C9.33 4.99 9.66 5.98 10 7 C9 8 9 8 6.1875 8.1875 C3.13301456 8.00782439 1.56204656 7.57664404 -1 6 C-0.67 4.02 -0.34 2.04 0 0 Z " fill="#1D1E37" transform="translate(94,185)"/>
<path d="M0 0 C1.18851563 0.00902344 2.37703125 0.01804688 3.6015625 0.02734375 C4.51679687 0.03894531 5.43203125 0.05054688 6.375 0.0625 C6.75718767 1.71864657 7.08895102 3.38707024 7.375 5.0625 C5.64652533 6.79097467 3.4176665 6.35639493 1.0625 6.4375 C-4.23667139 6.42373592 -4.23667139 6.42373592 -7.3125 3.5625 C-7.9621875 2.325 -7.9621875 2.325 -8.625 1.0625 C-5.74084117 -0.37957941 -3.20778472 -0.03144887 0 0 Z " fill="#070E12" transform="translate(675.625,149.9375)"/>
<path d="M0 0 C2.08326131 -0.02709444 4.16662441 -0.04643873 6.25 -0.0625 C7.41015625 -0.07410156 8.5703125 -0.08570313 9.765625 -0.09765625 C12.40977128 -0.01782092 14.49826091 0.21356222 17 1 C16.67 1.99 16.34 2.98 16 4 C10.06 4.495 10.06 4.495 4 5 C4 5.33 4 5.66 4 6 C0.7 5.67 -2.6 5.34 -6 5 C-5.34 4.34 -4.68 3.68 -4 3 C-3.01 3 -2.02 3 -1 3 C-0.67 2.01 -0.34 1.02 0 0 Z " fill="#16272A" transform="translate(800,150)"/>
<path d="M0 0 C1.32 2.31 2.64 4.62 4 7 C2.35 7.66 0.7 8.32 -1 9 C-0.01 9.66 0.98 10.32 2 11 C1.67 11.99 1.34 12.98 1 14 C-0.32 14 -1.64 14 -3 14 C-3.33 10.7 -3.66 7.4 -4 4 C-5.32 4 -6.64 4 -8 4 C-7.67 3.01 -7.34 2.02 -7 1 C-4.53721199 -0.231394 -2.7204945 -0.07159196 0 0 Z " fill="#161C21" transform="translate(305,98)"/>
<path d="M0 0 C2.31 0.66 4.62 1.32 7 2 C6.67 2.66 6.34 3.32 6 4 C7.32 4.33 8.64 4.66 10 5 C10 5.66 10 6.32 10 7 C9.34 7 8.68 7 8 7 C8 7.66 8 8.32 8 9 C8.66 9 9.32 9 10 9 C9.67 9.66 9.34 10.32 9 11 C0.585 9.02 0.585 9.02 -8 7 C-7.34 6.67 -6.68 6.34 -6 6 C-5.67 5.34 -5.34 4.68 -5 4 C-4.67 4.33 -4.34 4.66 -4 5 C-2.33382885 5.04063832 -0.66611905 5.042721 1 5 C0.67 3.35 0.34 1.7 0 0 Z " fill="#0F2638" transform="translate(679,119)"/>
<path d="M0 0 C0.66 0 1.32 0 2 0 C1.71926927 2.14729141 1.42511501 4.29283193 1.125 6.4375 C0.96257813 7.63246094 0.80015625 8.82742187 0.6328125 10.05859375 C0.31957031 11.51458984 0.31957031 11.51458984 0 13 C-0.99 13.495 -0.99 13.495 -2 14 C-2.33 13.67 -2.66 13.34 -3 13 C-4.32 14.32 -5.64 15.64 -7 17 C-7.66 16.67 -8.32 16.34 -9 16 C-7.79618552 13.50638429 -6.54571278 11.31856917 -5 9 C-5.66 8.67 -6.32 8.34 -7 8 C-6.34 8 -5.68 8 -5 8 C-5 7.34 -5 6.68 -5 6 C-3.625 4.375 -3.625 4.375 -2 3 C-1.34 3 -0.68 3 0 3 C0 2.01 0 1.02 0 0 Z " fill="#0F2530" transform="translate(582,107)"/>
<path d="M0 0 C1.32 0.66 2.64 1.32 4 2 C3.34 7.28 2.68 12.56 2 18 C0.68 17.67 -0.64 17.34 -2 17 C-3.12745936 13.61762193 -2.73788558 11.44346603 -2 8 C-2.020625 6.948125 -2.04125 5.89625 -2.0625 4.8125 C-2 2 -2 2 0 0 Z " fill="#0C0F10" transform="translate(336,185)"/>
<path d="M0 0 C5.61 0 11.22 0 17 0 C17 0.99 17 1.98 17 3 C15.84371094 2.85691406 15.84371094 2.85691406 14.6640625 2.7109375 C13.66117188 2.60007812 12.65828125 2.48921875 11.625 2.375 C10.62726563 2.25898437 9.62953125 2.14296875 8.6015625 2.0234375 C7.74304688 2.01570313 6.88453125 2.00796875 6 2 C5.34 2.66 4.68 3.32 4 4 C3.01 4 2.02 4 1 4 C1 4.66 1 5.32 1 6 C-0.43429001 6.67354499 -1.87257057 7.33859701 -3.3125 8 C-4.51326172 8.556875 -4.51326172 8.556875 -5.73828125 9.125 C-8 10 -8 10 -11 10 C-6.25 6 -6.25 6 -4 6 C-4.33 5.01 -4.66 4.02 -5 3 C-3.35 2.67 -1.7 2.34 0 2 C0 1.34 0 0.68 0 0 Z " fill="#091116" transform="translate(74,92)"/>
<path d="M0 0 C2.475 0.495 2.475 0.495 5 1 C4.67 1.66 4.34 2.32 4 3 C3.84932786 4.4465242 3.75138964 5.8987934 3.68359375 7.3515625 C3.64169922 8.20234375 3.59980469 9.053125 3.55664062 9.9296875 C3.51732422 10.81914063 3.47800781 11.70859375 3.4375 12.625 C3.39431641 13.5221875 3.35113281 14.419375 3.30664062 15.34375 C3.20043139 17.56234283 3.09838806 19.7810488 3 22 C2.67 22 2.34 22 2 22 C2 25.63 2 29.26 2 33 C1.34 33 0.68 33 0 33 C0 22 0 11 0 0 Z M1 5 C2 7 2 7 2 7 Z " fill="#1C395E" transform="translate(292,92)"/>
<path d="M0 0 C2.29296875 -0.2421875 2.29296875 -0.2421875 5 0 C6.80078125 1.6796875 6.80078125 1.6796875 8.3125 3.875 C8.82425781 4.59429687 9.33601563 5.31359375 9.86328125 6.0546875 C11 8 11 8 11 10 C5.51923077 10.36538462 5.51923077 10.36538462 3.3125 8.8125 C1.70597713 6.59396842 0.25162277 4.44066441 -1 2 C-0.67 1.34 -0.34 0.68 0 0 Z " fill="#0E151B" transform="translate(332,145)"/>
<path d="M0 0 C0.66 0 1.32 0 2 0 C2.33 5.28 2.66 10.56 3 16 C1.35 16.33 -0.3 16.66 -2 17 C-3.47721433 11.38658553 -2.51076686 6.49463836 -1 1 C-0.67 0.67 -0.34 0.34 0 0 Z " fill="#090B19" transform="translate(244,187)"/>
<path d="M0 0 C0.5775 0.37125 1.155 0.7425 1.75 1.125 C1.75 2.115 1.75 3.105 1.75 4.125 C-1.70263456 7.57763456 -4.42054764 8.67574862 -9.25 9.125 C-9.58 7.475 -9.91 5.825 -10.25 4.125 C-8.93 3.795 -7.61 3.465 -6.25 3.125 C-6.25 2.465 -6.25 1.805 -6.25 1.125 C-2.80384615 -1.09038462 -2.80384615 -1.09038462 0 0 Z " fill="#0E1319" transform="translate(664.25,95.875)"/>
<path d="M0 0 C0.33 0.66 0.66 1.32 1 2 C3.11846285 2.68729254 3.11846285 2.68729254 5.5625 3.125 C6.80193359 3.37636719 6.80193359 3.37636719 8.06640625 3.6328125 C8.70449219 3.75398437 9.34257813 3.87515625 10 4 C10 4.66 10 5.32 10 6 C9.01 6.33 8.02 6.66 7 7 C6.67 7.66 6.34 8.32 6 9 C6.99 9.33 7.98 9.66 9 10 C5.85190601 10.98940097 4.37166741 11.14359877 1.25 9.9375 C-1 8 -1 8 -1.8125 4.8125 C-1.874375 3.884375 -1.93625 2.95625 -2 2 C-1.34 2 -0.68 2 0 2 C0 1.34 0 0.68 0 0 Z " fill="#19232A" transform="translate(518,194)"/>
<path d="M0 0 C7.34181568 0.48143054 7.34181568 0.48143054 10.0625 2.625 C11.38927309 5.9861585 10.73492777 8.525796 10 12 C8.68 12.33 7.36 12.66 6 13 C6.04125 12.071875 6.0825 11.14375 6.125 10.1875 C6.27136339 6.84190281 6.27136339 6.84190281 4 4 C1.94074861 3.27617533 1.94074861 3.27617533 0 3 C0 2.01 0 1.02 0 0 Z " fill="#252222" transform="translate(425,185)"/>
<path d="M0 0 C0.99 0 1.98 0 3 0 C2.34 1.32 1.68 2.64 1 4 C1.639375 4.226875 2.27875 4.45375 2.9375 4.6875 C5 6 5 6 5.5625 8.4375 C5.706875 9.283125 5.85125 10.12875 6 11 C7.35405861 12.60411246 7.35405861 12.60411246 9 14 C10.75 16 10.75 16 12 18 C11.67 18.99 11.34 19.98 11 21 C10.55269531 20.38511719 10.10539062 19.77023438 9.64453125 19.13671875 C6.00319019 14.08718079 6.00319019 14.08718079 1.125 10.375 C-1 9 -1 9 -1.8125 5.3125 C-1.874375 4.219375 -1.93625 3.12625 -2 2 C-1.34 2 -0.68 2 0 2 C0 1.34 0 0.68 0 0 Z " fill="#1C2B37" transform="translate(332,133)"/>
<path d="M0 0 C1.6875 1.125 1.6875 1.125 3 3 C2.6875 6.1875 2.6875 6.1875 2 9 C1.34 9 0.68 9 0 9 C0 8.01 0 7.02 0 6 C-0.66 5.67 -1.32 5.34 -2 5 C-2 4.67 -2 4.34 -2 4 C-2.66 4 -3.32 4 -4 4 C-4.18175781 4.65226562 -4.36351562 5.30453125 -4.55078125 5.9765625 C-5.97466596 10.92730011 -7.49407234 15.46546423 -10 20 C-10.33 20 -10.66 20 -11 20 C-11 18.35 -11 16.7 -11 15 C-10.34 15 -9.68 15 -9 15 C-9.33 14.01 -9.66 13.02 -10 12 C-9.07175817 9.6372026 -8.06902939 7.30252483 -7 5 C-6.67 4.01 -6.34 3.02 -6 2 C-3.85412616 0.684787 -2.52986895 0 0 0 Z " fill="#111C2E" transform="translate(435,105)"/>
<path d="M0 0 C1.28132812 0.10183594 2.56265625 0.20367187 3.8828125 0.30859375 C4.87023437 0.39238281 5.85765625 0.47617188 6.875 0.5625 C6.875 0.8925 6.875 1.2225 6.875 1.5625 C4.565 1.8925 2.255 2.2225 -0.125 2.5625 C-0.125 3.2225 -0.125 3.8825 -0.125 4.5625 C0.535 5.2225 1.195 5.8825 1.875 6.5625 C-1.755 6.5625 -5.385 6.5625 -9.125 6.5625 C-9.125 4.5825 -9.125 2.6025 -9.125 0.5625 C-6.07230154 -0.96384923 -3.36654311 -0.27544444 0 0 Z " fill="#0B1418" transform="translate(797.125,92.4375)"/>
<path d="M0 0 C2.97 0.495 2.97 0.495 6 1 C6 1.99 6 2.98 6 4 C5.67 4.33 5.34 4.66 5 5 C5.99 5.66 6.98 6.32 8 7 C8 7.66 8 8.32 8 9 C3.28596212 8.52060632 -0.66579301 8.03165952 -5 6 C-3 4 -3 4 0 2 C0 1.34 0 0.68 0 0 Z " fill="#0C363A" transform="translate(663,147)"/>
<path d="M0 0 C0.99 0.33 1.98 0.66 3 1 C3 1.66 3 2.32 3 3 C3.66 2.01 4.32 1.02 5 0 C6.32 0.66 7.64 1.32 9 2 C8.34 3.98 7.68 5.96 7 8 C4.69 8.33 2.38 8.66 0 9 C-0.66 8.01 -1.32 7.02 -2 6 C-1.125 2.8125 -1.125 2.8125 0 0 Z " fill="#5A4885" transform="translate(672,196)"/>
<path d="M0 0 C3.48824341 0.2583884 4.24214247 1.26466736 6.6875 3.9375 C10.32318852 8.75233074 10.09514175 11.10121126 10 17 C8.03698408 13.49461443 7.04097612 9.86648272 6 6 C5.01 6 4.02 6 3 6 C2.34 6.66 1.68 7.32 1 8 C-1.4375 7.1875 -1.4375 7.1875 -4 6 C-4.33 5.01 -4.66 4.02 -5 3 C-2.69 3 -0.38 3 2 3 C1.34 2.01 0.68 1.02 0 0 Z " fill="#060A17" transform="translate(95,124)"/>
<path d="M0 0 C4.96723601 0.04030212 9.34412542 0.34412542 13 4 C12.67 4.99 12.34 5.98 12 7 C8 7 4 7 0 7 C0.33 6.34 0.66 5.68 1 5 C1.66 5 2.32 5 3 5 C3 4.34 3 3.68 3 3 C1.68 2.34 0.36 1.68 -1 1 C-0.67 0.67 -0.34 0.34 0 0 Z " fill="#0B1418" transform="translate(668,118)"/>
<path d="M0 0 C0.75 1.6875 0.75 1.6875 1 4 C-0.30135125 5.69175663 -1.63755204 7.35704805 -3 9 C-3.78946609 11.68507329 -3.78946609 11.68507329 -4 14 C-4.99 14 -5.98 14 -7 14 C-8.125 7.375 -8.125 7.375 -7 4 C-2.54285714 0 -2.54285714 0 0 0 Z " fill="#06091F" transform="translate(202,189)"/>
<path d="M0 0 C0.66 0 1.32 0 2 0 C2 0.99 2 1.98 2 3 C2.66 3 3.32 3 4 3 C4 3.99 4 4.98 4 6 C3.34 6 2.68 6 2 6 C2 8.31 2 10.62 2 13 C0.02 13 -1.96 13 -4 13 C-3.71517632 11.58194169 -3.42181856 10.16559621 -3.125 8.75 C-2.96257812 7.96109375 -2.80015625 7.1721875 -2.6328125 6.359375 C-2.00849925 4.03168856 -1.15161458 2.10968048 0 0 Z " fill="#111B29" transform="translate(350,190)"/>
<path d="M0 0 C0.33 0 0.66 0 1 0 C1.19511725 2.74965228 1.38136433 5.49942132 1.5625 8.25 C1.61857422 9.02730469 1.67464844 9.80460938 1.73242188 10.60546875 C1.78076172 11.35957031 1.82910156 12.11367187 1.87890625 12.890625 C1.94960327 13.92751465 1.94960327 13.92751465 2.02172852 14.98535156 C1.99853136 17.13617072 1.5995764 18.94084871 1 21 C-1.31 21 -3.62 21 -6 21 C-6 20.34 -6 19.68 -6 19 C-4.68 18.34 -3.36 17.68 -2 17 C-2.01160156 16.43152344 -2.02320313 15.86304688 -2.03515625 15.27734375 C-2.09218101 10.39765353 -1.9002286 5.80121922 -1 1 C-0.67 0.67 -0.34 0.34 0 0 Z " fill="#050C17" transform="translate(542,134)"/>
<path d="M0 0 C1.670625 0.061875 1.670625 0.061875 3.375 0.125 C1.81798069 4.79605792 -0.70947373 8.21205685 -3.625 12.125 C-3.955 11.465 -4.285 10.805 -4.625 10.125 C-3.965 9.135 -3.305 8.145 -2.625 7.125 C-3.285 6.795 -3.945 6.465 -4.625 6.125 C-5.615 6.455 -6.605 6.785 -7.625 7.125 C-5.06433824 0.17463235 -5.06433824 0.17463235 0 0 Z " fill="#050C10" transform="translate(220.625,92.875)"/>
<path d="M0 0 C0.33 0 0.66 0 1 0 C1.33 4.29 1.66 8.58 2 13 C4.64 13.33 7.28 13.66 10 14 C9.34 15.32 8.68 16.64 8 18 C2.25 18.125 2.25 18.125 0 17 C0 11.39 0 5.78 0 0 Z " fill="#203959" transform="translate(292,137)"/>
<path d="M0 0 C2.97 0.495 2.97 0.495 6 1 C5 4 5 4 3 5 C2.01 6.485 2.01 6.485 1 8 C-2.625 8.1875 -2.625 8.1875 -6 8 C-6 8.66 -6 9.32 -6 10 C-6.66 9.67 -7.32 9.34 -8 9 C-8 7.35 -8 5.7 -8 4 C-7.01 3.67 -6.02 3.34 -5 3 C-5 3.66 -5 4.32 -5 5 C-3.02 4.67 -1.04 4.34 1 4 C0.67 2.68 0.34 1.36 0 0 Z " fill="#06090D" transform="translate(102,188)"/>
<path d="M0 0 C3.5 -0.375 3.5 -0.375 7 0 C7.66 0.99 8.32 1.98 9 3 C8.67 3.99 8.34 4.98 8 6 C7.01 6 6.02 6 5 6 C4.67 6.99 4.34 7.98 4 9 C3.566875 8.38125 3.13375 7.7625 2.6875 7.125 C1.00259517 4.7802755 1.00259517 4.7802755 -2 3 C-1.34 2.01 -0.68 1.02 0 0 Z " fill="#1E273B" transform="translate(172,92)"/>
<path d="M0 0 C3.625 0.375 3.625 0.375 7 1 C7 2.65 7 4.3 7 6 C3.66666667 7.33333333 0.33333333 8.66666667 -3 10 C-2.67 8.68 -2.34 7.36 -2 6 C-1.01 6 -0.02 6 1 6 C1.33 5.01 1.66 4.02 2 3 C0.68 2.67 -0.64 2.34 -2 2 C-1.34 1.34 -0.68 0.68 0 0 Z " fill="#121A39" transform="translate(295,185)"/>
<path d="M0 0 C2.64 0 5.28 0 8 0 C8.66 1.65 9.32 3.3 10 5 C8.5437328 5.36256858 7.08488815 5.71479793 5.625 6.0625 C4.40683594 6.35833984 4.40683594 6.35833984 3.1640625 6.66015625 C1 7 1 7 -1 6 C-0.34 5.01 0.32 4.02 1 3 C0.67 2.01 0.34 1.02 0 0 Z " fill="#19272A" transform="translate(564,92)"/>
<path d="M0 0 C0.99 0.495 0.99 0.495 2 1 C2.33 0.67 2.66 0.34 3 0 C4.66617115 -0.04063832 6.33388095 -0.042721 8 0 C8.66 1.65 9.32 3.3 10 5 C9.34 5 8.68 5 8 5 C8 5.66 8 6.32 8 7 C5.69 7 3.38 7 1 7 C0 4 0 4 0 0 Z M4 3 C4.33 3.99 4.66 4.98 5 6 C5.66 5.34 6.32 4.68 7 4 C6.01 3.67 5.02 3.34 4 3 Z " fill="#1B1E3C" transform="translate(93,196)"/>
<path d="M0 0 C0 0.66 0 1.32 0 2 C-1.65 2.66 -3.3 3.32 -5 4 C-4.01 4.33 -3.02 4.66 -2 5 C-2.33 6.32 -2.66 7.64 -3 9 C-4.65 9.33 -6.3 9.66 -8 10 C-8.99 7.03 -9.98 4.06 -11 1 C-7.26513121 0.4254048 -3.78706732 0 0 0 Z " fill="#3C4060" transform="translate(299,183)"/>
<path d="M0 0 C2 1 2 1 3.1875 3.625 C4.10714007 7.44504337 3.76490479 10.17547603 3 14 C1.0625 13.3125 1.0625 13.3125 -1 12 C-2.73246818 7.66882954 -1.42860903 4.2858271 0 0 Z " fill="#141D1F" transform="translate(287,183)"/>
<path d="M0 0 C0.66 0.66 1.32 1.32 2 2 C0.45730076 6.72065967 -1.07794619 11.41664092 -3 16 C-3.99 15.34 -4.98 14.68 -6 14 C-5.71640113 12.5608866 -5.42278601 11.12374482 -5.125 9.6875 C-4.96257812 8.88699219 -4.80015625 8.08648437 -4.6328125 7.26171875 C-4 5 -4 5 -2 2 C-1.34 2 -0.68 2 0 2 C0 1.34 0 0.68 0 0 Z " fill="#11181D" transform="translate(433,107)"/>
<path d="M0 0 C2.10883522 1.70715232 2.92871224 2.58764921 3.3984375 5.3046875 C3.31899201 14.01720959 3.31899201 14.01720959 0 18 C-0.33 18 -0.66 18 -1 18 C-1 14.37 -1 10.74 -1 7 C-1.66 7 -2.32 7 -3 7 C-2.67 6.34 -2.34 5.68 -2 5 C-1.34 5 -0.68 5 0 5 C0 3.35 0 1.7 0 0 Z " fill="#0C1418" transform="translate(574,187)"/>
<path d="M0 0 C3.29148243 1.13499394 3.9959869 1.99283376 5.75 5.125 C6.1625 6.07375 6.575 7.0225 7 8 C6.34 8 5.68 8 5 8 C5 9.98 5 11.96 5 14 C4.01 13.01 3.02 12.02 2 11 C2.33 10.34 2.66 9.68 3 9 C2.34 9 1.68 9 1 9 C0.814375 7.824375 0.814375 7.824375 0.625 6.625 C0.20882007 3.85942178 0.20882007 3.85942178 -2 2 C-1.34 1.34 -0.68 0.68 0 0 Z " fill="#1E3431" transform="translate(190,185)"/>
<path d="M0 0 C2 1.3125 2 1.3125 4 3 C4 3.99 4 4.98 4 6 C1 8 1 8 -0.9375 7.875 C-3.58139311 6.75334838 -5.09095436 5.11358624 -7 3 C-3.535 2.505 -3.535 2.505 0 2 C0 1.34 0 0.68 0 0 Z " fill="#0F2629" transform="translate(695,97)"/>
<path d="M0 0 C2.9375 0.375 2.9375 0.375 6 1 C6.33 1.66 6.66 2.32 7 3 C6.34 3 5.68 3 5 3 C5 3.99 5 4.98 5 6 C5.66 6.66 6.32 7.32 7 8 C4.69 8 2.38 8 0 8 C-0.79953138 4.71303767 -1.09658936 3.28976808 0 0 Z " fill="#112E30" transform="translate(67,147)"/>
<path d="M0 0 C2.31 0 4.62 0 7 0 C7 5.28 7 10.56 7 16 C6.67 16 6.34 16 6 16 C5.98582031 15.40832031 5.97164062 14.81664062 5.95703125 14.20703125 C5.68335383 9.67286212 5.52002352 7.59612452 2.4375 4.0625 C1.633125 3.381875 0.82875 2.70125 0 2 C0 1.34 0 0.68 0 0 Z " fill="#12292C" transform="translate(195,129)"/>
<path d="M0 0 C1.32 0 2.64 0 4 0 C4 0.66 4 1.32 4 2 C4.66 2 5.32 2 6 2 C5.34 3.98 4.68 5.96 4 8 C2.35 8.33 0.7 8.66 -1 9 C-2.25541557 5.23375329 -1.37061958 3.62811066 0 0 Z " fill="#505B5B" transform="translate(147,183)"/>
<path d="M0 0 C1.32 0 2.64 0 4 0 C3.9175 0.9075 3.835 1.815 3.75 2.75 C3.69590532 6.07274053 3.69590532 6.07274053 5.875 8.3125 C7.88733802 10.02950671 7.88733802 10.02950671 10 11 C10 11.66 10 12.32 10 13 C5.62295962 12.27683681 3.92173861 10.17787243 1.1953125 6.85546875 C-0.34106788 4.47056457 -0.5045037 2.77477034 0 0 Z " fill="#131415" transform="translate(653,110)"/>
<path d="M0 0 C0.99 0.66 1.98 1.32 3 2 C2.34 2.66 1.68 3.32 1 4 C1.66 4.33 2.32 4.66 3 5 C3.33 4.34 3.66 3.68 4 3 C3.67 5.31 3.34 7.62 3 10 C0.03 9.505 0.03 9.505 -3 9 C-3 4.72290301 -2.29379749 3.44069624 0 0 Z " fill="#1C242C" transform="translate(480,193)"/>
<path d="M0 0 C1.98 0.495 1.98 0.495 4 1 C3.34 1.66 2.68 2.32 2 3 C2.99 3 3.98 3 5 3 C6.68236471 3.62599617 8.3523962 4.28752268 10 5 C9.67 5.66 9.34 6.32 9 7 C8.34 7 7.68 7 7 7 C6.67 7.66 6.34 8.32 6 9 C6 8.01 6 7.02 6 6 C5.01 6.66 4.02 7.32 3 8 C2.01 8 1.02 8 0 8 C-1.09658936 4.71023192 -0.79953138 3.28696233 0 0 Z " fill="#253351" transform="translate(468,184)"/>
<path d="M0 0 C0 0.66 0 1.32 0 2 C-0.66 2 -1.32 2 -2 2 C-2.433125 3.423125 -2.433125 3.423125 -2.875 4.875 C-4 8 -4 8 -6 10 C-7 7 -7 7 -7 4 C-7.66 4 -8.32 4 -9 4 C-9 3.34 -9 2.68 -9 2 C-3.375 -1.125 -3.375 -1.125 0 0 Z " fill="#1F363F" transform="translate(64,108)"/>
<path d="M0 0 C0 1.98 0 3.96 0 6 C1.98 6.66 3.96 7.32 6 8 C6 8.66 6 9.32 6 10 C0.375 10.25 0.375 10.25 -3 8 C-3 7.34 -3 6.68 -3 6 C-3.66 5.67 -4.32 5.34 -5 5 C-5 3.68 -5 2.36 -5 1 C-3 0 -3 0 0 0 Z " fill="#12131E" transform="translate(522,188)"/>
<path d="M0 0 C0.99 0.66 1.98 1.32 3 2 C3 2.99 3 3.98 3 5 C3.66 5 4.32 5 5 5 C5.33 6.32 5.66 7.64 6 9 C4.1875 9.6875 4.1875 9.6875 2 10 C-0.46756016 8.35495989 -0.94960299 7.19700648 -1.6875 4.3125 C-1.790625 3.549375 -1.89375 2.78625 -2 2 C-1.34 2 -0.68 2 0 2 C0 1.34 0 0.68 0 0 Z " fill="#16252F" transform="translate(715,192)"/>
<path d="M0 0 C1.5625 1.0625 1.5625 1.0625 3 3 C2.8125 6.625 2.8125 6.625 2 10 C1.01 10.495 1.01 10.495 0 11 C-0.66 9.35 -1.32 7.7 -2 6 C-2.99 6 -3.98 6 -5 6 C-3.86695008 2.60085025 -2.87481525 1.94745549 0 0 Z " fill="#2C2C2C" transform="translate(679,185)"/>
<path d="M0 0 C0.33 0.99 0.66 1.98 1 3 C-2.42766564 3.85691641 -4.62751675 4.01174497 -8 3 C-8.99 3 -9.98 3 -11 3 C-11 2.01 -11 1.02 -11 0 C-3 -1.38461538 -3 -1.38461538 0 0 Z " fill="#161627" transform="translate(481,185)"/>
<path d="M0 0 C0.8723412 2.99480917 1.10829766 5.63575911 1.0625 8.75 C1.05347656 9.54921875 1.04445313 10.3484375 1.03515625 11.171875 C1.01775391 12.07679687 1.01775391 12.07679687 1 13 C0.01 13 -0.98 13 -2 13 C-4.125 6.375 -4.125 6.375 -3 3 C-2.34 3 -1.68 3 -1 3 C-0.67 2.01 -0.34 1.02 0 0 Z " fill="#121A21" transform="translate(298,112)"/>
<path d="M0 0 C0 0.66 0 1.32 0 2 C0.66 2 1.32 2 2 2 C2 2.99 2 3.98 2 5 C-5.75 6.125 -5.75 6.125 -8 5 C-8 4.34 -8 3.68 -8 3 C-5.04518508 0.25624329 -4.22528092 0 0 0 Z " fill="#0D1018" transform="translate(693,94)"/>
<path d="M0 0 C0.99 0 1.98 0 3 0 C3.33 2.97 3.66 5.94 4 9 C2.68 9.33 1.36 9.66 0 10 C-0.66 8.35 -1.32 6.7 -2 5 C-1.34 5 -0.68 5 0 5 C0 3.35 0 1.7 0 0 Z " fill="#1E4243" transform="translate(153,185)"/>
<path d="M0 0 C1.32 0 2.64 0 4 0 C5.28317892 3.84953676 5.06643637 6.94738135 5 11 C4.34 10.67 3.68 10.34 3 10 C3 9.01 3 8.02 3 7 C2.01 7.33 1.02 7.66 0 8 C0 5.36 0 2.72 0 0 Z " fill="#2C2C2C" transform="translate(766,185)"/>
<path d="M0 0 C1.98 0 3.96 0 6 0 C6.33 2.97 6.66 5.94 7 9 C6.34 9 5.68 9 5 9 C4.67 8.01 4.34 7.02 4 6 C3.01 6 2.02 6 1 6 C1 5.34 1 4.68 1 4 C0.34 3.67 -0.32 3.34 -1 3 C-0.67 2.01 -0.34 1.02 0 0 Z " fill="#0C2C2F" transform="translate(773,128)"/>
<path d="M0 0 C0.33 0.66 0.66 1.32 1 2 C1.99 2.66 2.98 3.32 4 4 C1.69 4.66 -0.62 5.32 -3 6 C-2.67 6.99 -2.34 7.98 -2 9 C-2.99 9.495 -2.99 9.495 -4 10 C-4.33 7.03 -4.66 4.06 -5 1 C-3 0 -3 0 0 0 Z " fill="#23232D" transform="translate(145,185)"/>
<path d="M0 0 C2.9375 1.3125 2.9375 1.3125 6 3 C6.33 3.99 6.66 4.98 7 6 C5.35 6.66 3.7 7.32 2 8 C1.34 6.68 0.68 5.36 0 4 C-0.66 4 -1.32 4 -2 4 C-2 3.34 -2 2.68 -2 2 C-1.34 2 -0.68 2 0 2 C0 1.34 0 0.68 0 0 Z " fill="#10171B" transform="translate(689,124)"/>
<path d="M0 0 C1.98 0 3.96 0 6 0 C5.67 1.32 5.34 2.64 5 4 C5.99 4.33 6.98 4.66 8 5 C7.67 5.66 7.34 6.32 7 7 C2.545 6.01 2.545 6.01 -2 5 C-1.34 3.35 -0.68 1.7 0 0 Z " fill="#374C4F" transform="translate(779,92)"/>
<path d="M0 0 C1.98 0 3.96 0 6 0 C5.67 0.66 5.34 1.32 5 2 C4.01 2.33 3.02 2.66 2 3 C1.67 10.92 1.34 18.84 1 27 C0.67 27 0.34 27 0 27 C0 18.09 0 9.18 0 0 Z " fill="#070C0F" transform="translate(337,93)"/>
<path d="M0 0 C0.99 0.33 1.98 0.66 3 1 C3.33 2.98 3.66 4.96 4 7 C2.35 6.67 0.7 6.34 -1 6 C-1.33 6.99 -1.66 7.98 -2 9 C-2.66 8.67 -3.32 8.34 -4 8 C-4 7.01 -4 6.02 -4 5 C-3.34 5 -2.68 5 -2 5 C-2 3.68 -2 2.36 -2 1 C-1.34 0.67 -0.68 0.34 0 0 Z " fill="#373B42" transform="translate(622,188)"/>
<path d="M0 0 C-0.309375 0.5775 -0.61875 1.155 -0.9375 1.75 C-1.92583364 3.84294184 -2.5168613 5.74535275 -3 8 C-2.34 8 -1.68 8 -1 8 C-0.67 7.34 -0.34 6.68 0 6 C-0.33 7.32 -0.66 8.64 -1 10 C-2.875 9.375 -2.875 9.375 -5 8 C-6.25 4.875 -6.25 4.875 -7 2 C-2.25 0 -2.25 0 0 0 Z " fill="#45745C" transform="translate(573,183)"/>
<path d="M0 0 C1.32 0.33 2.64 0.66 4 1 C4 1.66 4 2.32 4 3 C4.99 3 5.98 3 7 3 C6.34 4.98 5.68 6.96 5 9 C4.34 8.01 3.68 7.02 3 6 C0.41619823 5.74969023 0.41619823 5.74969023 -2 6 C-1.34 4.02 -0.68 2.04 0 0 Z " fill="#374D57" transform="translate(348,184)"/>
<path d="M0 0 C0.66 0.99 1.32 1.98 2 3 C-1.07322544 3.91058531 -3.80097361 4.08886184 -7 4 C-7 3.34 -7 2.68 -7 2 C-7.99 2 -8.98 2 -10 2 C-10 1.34 -10 0.68 -10 0 C-3.375 -1.125 -3.375 -1.125 0 0 Z " fill="#1A1E22" transform="translate(96,124)"/>
<path d="M0 0 C2.72953726 1.36476863 2.86459553 2.74020109 3.9375 5.5625 C4.28039062 6.46097656 4.62328125 7.35945313 4.9765625 8.28515625 C5.31429688 9.18105469 5.65203125 10.07695313 6 11 C6.31710937 11.78246094 6.63421875 12.56492187 6.9609375 13.37109375 C7.7020908 15.22397701 8.35881576 17.11019383 9 19 C8.67 19.66 8.34 20.32 8 21 C4.15068939 14.81360795 0 7.42624233 0 0 Z " fill="#020617" transform="translate(446,111)"/>
<path d="M0 0 C2.79872437 2.52788007 4.45773019 4.20411134 5 8 C3.02 8 1.04 8 -1 8 C-1.625 5.6875 -1.625 5.6875 -2 3 C-1.34 2.01 -0.68 1.02 0 0 Z " fill="#0C1217" transform="translate(338,147)"/>
<path d="M0 0 C0.66 0.99 1.32 1.98 2 3 C0.35 3.66 -1.3 4.32 -3 5 C-2.01 5.66 -1.02 6.32 0 7 C-0.33 7.99 -0.66 8.98 -1 10 C-2.32 10 -3.64 10 -5 10 C-5.33 7.03 -5.66 4.06 -6 1 C-3.03 1.495 -3.03 1.495 0 2 C0 1.34 0 0.68 0 0 Z " fill="#15283B" transform="translate(307,102)"/>
<path d="M0 0 C0.66 0.66 1.32 1.32 2 2 C1.9765625 4.1640625 1.9765625 4.1640625 1.625 6.625 C1.51414062 7.44226563 1.40328125 8.25953125 1.2890625 9.1015625 C1.19367188 9.72804687 1.09828125 10.35453125 1 11 C0.34 11 -0.32 11 -1 11 C-1 12.65 -1 14.3 -1 16 C-1.99 15.67 -2.98 15.34 -4 15 C-3.34 15 -2.68 15 -2 15 C-2.02320313 14.25234375 -2.04640625 13.5046875 -2.0703125 12.734375 C-2.08835937 11.74953125 -2.10640625 10.7646875 -2.125 9.75 C-2.15980469 8.28820312 -2.15980469 8.28820312 -2.1953125 6.796875 C-1.99862781 3.9803502 -1.44568916 2.39050964 0 0 Z " fill="#2B333D" transform="translate(340,188)"/>
<path d="M0 0 C0.33 0.99 0.66 1.98 1 3 C0 4 0 4 -2.8125 4.1875 C-5.86698544 4.00782439 -7.43795344 3.57664404 -10 2 C-9.34 2 -8.68 2 -8 2 C-8 1.34 -8 0.68 -8 0 C-5.13822943 -1.43088528 -3.06624227 -0.59991697 0 0 Z " fill="#324049" transform="translate(103,189)"/>
<path d="M0 0 C0.66 0.33 1.32 0.66 2 1 C2 3.64 2 6.28 2 9 C0.02 9.33 -1.96 9.66 -4 10 C-4 9.34 -4 8.68 -4 8 C-3.34 8 -2.68 8 -2 8 C-1.855625 6.865625 -1.71125 5.73125 -1.5625 4.5625 C-1 1 -1 1 0 0 Z " fill="#0F272B" transform="translate(539,143)"/>
<path d="M0 0 C1.48828125 1.05078125 1.48828125 1.05078125 3 3 C3.29296875 6.35546875 3.29296875 6.35546875 3.1875 10.1875 C3.16042969 11.45980469 3.13335937 12.73210937 3.10546875 14.04296875 C3.07066406 15.01878906 3.03585937 15.99460938 3 17 C2.34 17 1.68 17 1 17 C0.83141902 14.9168207 0.66520745 12.83344956 0.5 10.75 C0.4071875 9.58984375 0.314375 8.4296875 0.21875 7.234375 C0.05595356 4.82731342 0 2.41256049 0 0 Z " fill="#0A4D6F" transform="translate(299,119)"/>
<path d="M0 0 C2.125 0.375 2.125 0.375 4 1 C4 1.99 4 2.98 4 4 C2.35 4.33 0.7 4.66 -1 5 C-1 5.66 -1 6.32 -1 7 C-4.3 6.67 -7.6 6.34 -11 6 C-11 5.67 -11 5.34 -11 5 C-8.36 5 -5.72 5 -3 5 C-2.67 4.01 -2.34 3.02 -2 2 C-1.34 1.34 -0.68 0.68 0 0 Z " fill="#10333E" transform="translate(686,92)"/>
<path d="M0 0 C0.66 0 1.32 0 2 0 C0.79618552 2.49361571 -0.45428722 4.68143083 -2 7 C-0.01508358 6.73323796 -0.01508358 6.73323796 2 6 C2.33 5.01 2.66 4.02 3 3 C3.66 3 4.32 3 5 3 C4.60196439 5.88575819 4.20990931 6.82189513 1.9375 8.75 C0.9784375 9.36875 0.9784375 9.36875 0 10 C-1.32 9.34 -2.64 8.68 -4 8 C-2.87548273 5.0280615 -1.77706209 2.66559313 0 0 Z " fill="#060C0F" transform="translate(575,116)"/>
<path d="M0 0 C2.475 0.495 2.475 0.495 5 1 C5.6875 2.8125 5.6875 2.8125 6 5 C4.5625 6.75 4.5625 6.75 3 8 C2.01 7.34 1.02 6.68 0 6 C-0.1875 2.875 -0.1875 2.875 0 0 Z " fill="#151B1F" transform="translate(778,119)"/>
<path d="M0 0 C0.66 0.33 1.32 0.66 2 1 C1.21654285 2.17219543 0.42297164 3.33763668 -0.375 4.5 C-0.81585938 5.1496875 -1.25671875 5.799375 -1.7109375 6.46875 C-2.13632813 6.9740625 -2.56171875 7.479375 -3 8 C-3.66 8 -4.32 8 -5 8 C-5.66 7.34 -6.32 6.68 -7 6 C-7.99 6.495 -7.99 6.495 -9 7 C-8.67 5.68 -8.34 4.36 -8 3 C-6.02 3 -4.04 3 -2 3 C-2 2.34 -2 1.68 -2 1 C-1.34 0.67 -0.68 0.34 0 0 Z " fill="#050B10" transform="translate(214,106)"/>
<path d="M0 0 C1.32 0 2.64 0 4 0 C4.33 0.99 4.66 1.98 5 3 C5.66 3.33 6.32 3.66 7 4 C7.625 7.0625 7.625 7.0625 8 10 C7.34 10 6.68 10 6 10 C5.34 8.68 4.68 7.36 4 6 C3.01 6 2.02 6 1 6 C0.67 4.02 0.34 2.04 0 0 Z " fill="#283557" transform="translate(625,185)"/>
<path d="M0 0 C6.625 -0.25 6.625 -0.25 10 2 C9.67 2.66 9.34 3.32 9 4 C8.01 3.67 7.02 3.34 6 3 C5.67 4.65 5.34 6.3 5 8 C3.9375 6.1875 3.9375 6.1875 3 4 C3.33 3.01 3.66 2.02 4 1 C2.35 1.33 0.7 1.66 -1 2 C-0.67 1.34 -0.34 0.68 0 0 Z " fill="#4F7679" transform="translate(518,187)"/>
<path d="M0 0 C0.66 0.33 1.32 0.66 2 1 C1.67 2.65 1.34 4.3 1 6 C-0.65 6.33 -2.3 6.66 -4 7 C-4.33 5.68 -4.66 4.36 -5 3 C-2.625 1.4375 -2.625 1.4375 0 0 Z " fill="#14111C" transform="translate(426,123)"/>
<path d="M0 0 C2.1385485 2.1385485 2.42655063 3.13275314 3 6 C0.35261084 7.4606285 -0.89448334 8 -4 8 C-3.67 5.69 -3.34 3.38 -3 1 C-2.01 0.67 -1.02 0.34 0 0 Z " fill="#141E23" transform="translate(310,109)"/>
<path d="M0 0 C0.66 0.66 1.32 1.32 2 2 C1.25 4.4375 1.25 4.4375 0 7 C-2.125 7.8125 -2.125 7.8125 -4 8 C-4.66 5.69 -5.32 3.38 -6 1 C-5.34 1 -4.68 1 -4 1 C-3.67 1.66 -3.34 2.32 -3 3 C-2.01 2.67 -1.02 2.34 0 2 C0 1.34 0 0.68 0 0 Z " fill="#122450" transform="translate(156,196)"/>
<path d="M0 0 C2.31 0 4.62 0 7 0 C7 1.32 7 2.64 7 4 C6.34 4 5.68 4 5 4 C4.67 4.99 4.34 5.98 4 7 C3.67 7 3.34 7 3 7 C3 5.35 3 3.7 3 2 C2.01 2.33 1.02 2.66 0 3 C0 2.01 0 1.02 0 0 Z " fill="#2A2B34" transform="translate(243,185)"/>
<path d="M0 0 C1.32 0 2.64 0 4 0 C3.67 2.31 3.34 4.62 3 7 C2.01 7.33 1.02 7.66 0 8 C-0.79953138 4.71303767 -1.09658936 3.28976808 0 0 Z " fill="#11191E" transform="translate(295,143)"/>
<path d="M0 0 C4.10088936 1.50607883 5.53509554 3.96188878 7.75 7.625 C8.36359375 8.62789062 8.9771875 9.63078125 9.609375 10.6640625 C10.06828125 11.43492187 10.5271875 12.20578125 11 13 C10.01 13.495 10.01 13.495 9 14 C7.00223098 12.00223098 6.21731282 10.50784746 5 8 C4.14101571 6.57356548 3.26591706 5.15671114 2.375 3.75 C1.92898438 3.04359375 1.48296875 2.3371875 1.0234375 1.609375 C0.68570312 1.07828125 0.34796875 0.5471875 0 0 Z " fill="#020911" transform="translate(320,122)"/>
<path d="M0 0 C0.66 0.33 1.32 0.66 2 1 C2.08096803 2.45742463 2.13917774 3.91612807 2.1875 5.375 C2.22230469 6.18710938 2.25710937 6.99921875 2.29296875 7.8359375 C2.19628906 8.55007812 2.09960938 9.26421875 2 10 C1.01 10.66 0.02 11.32 -1 12 C-1 9.36 -1 6.72 -1 4 C-1.66 4 -2.32 4 -3 4 C-2 2 -2 2 0 0 Z " fill="#1E2C43" transform="translate(98,129)"/>
<path d="M0 0 C0.66 0.99 1.32 1.98 2 3 C3.32 2.67 4.64 2.34 6 2 C6.99 3.32 7.98 4.64 9 6 C6.03 6 3.06 6 0 6 C-0.38218767 4.34385343 -0.71395102 2.67542976 -1 1 C-0.67 0.67 -0.34 0.34 0 0 Z " fill="#494B4E" transform="translate(196,118)"/>
<path d="M0 0 C1.32 0.33 2.64 0.66 4 1 C3.01 1.495 3.01 1.495 2 2 C2 3.32 2 4.64 2 6 C1.01 6 0.02 6 -1 6 C-1.33 6.66 -1.66 7.32 -2 8 C-2.66 7.34 -3.32 6.68 -4 6 C-3.8125 3.9375 -3.8125 3.9375 -3 2 C-2.01 1.67 -1.02 1.34 0 1 C0 0.67 0 0.34 0 0 Z " fill="#1A2937" transform="translate(66,115)"/>
<path d="M0 0 C0.66 0 1.32 0 2 0 C2 0.66 2 1.32 2 2 C2.66 2.33 3.32 2.66 4 3 C5.03145371 4.30915279 6.03542166 5.64082143 7 7 C4.36 7 1.72 7 -1 7 C-0.67 4.69 -0.34 2.38 0 0 Z " fill="#182734" transform="translate(657,109)"/>
<path d="M0 0 C0.66 0.66 1.32 1.32 2 2 C1.67 2.99 1.34 3.98 1 5 C0.34 5 -0.32 5 -1 5 C-1.33 5.66 -1.66 6.32 -2 7 C-3.32 6.67 -4.64 6.34 -6 6 C-5.67 4.35 -5.34 2.7 -5 1 C-2.625 0.375 -2.625 0.375 0 0 Z " fill="#37383B" transform="translate(63,99)"/>
<path d="M0 0 C0.33 0.99 0.66 1.98 1 3 C-1.97 4.32 -4.94 5.64 -8 7 C-7.39816251 4.97954558 -6.72693904 2.97888961 -6 1 C-4 0 -4 0 0 0 Z " fill="#0E1619" transform="translate(439,100)"/>
<path d="M0 0 C2.0245738 1.93254772 3.42105792 3.63158688 5 6 C4.67 6.99 4.34 7.98 4 9 C3.34 8.01 2.68 7.02 2 6 C0.02 6.33 -1.96 6.66 -4 7 C-3.43628586 3.73045798 -2.50037734 2.17424117 0 0 Z " fill="#040916" transform="translate(180,95)"/>
<path d="M0 0 C1.98 0.495 1.98 0.495 4 1 C4 3.31 4 5.62 4 8 C3.01 8 2.02 8 1 8 C1 6.68 1 5.36 1 4 C0.34 4 -0.32 4 -1 4 C-0.67 2.68 -0.34 1.36 0 0 Z " fill="#0E282A" transform="translate(285,195)"/>
<path d="M0 0 C0.33 0.99 0.66 1.98 1 3 C0.34 3 -0.32 3 -1 3 C-1 4.65 -1 6.3 -1 8 C-2.32 8 -3.64 8 -5 8 C-5.33 8.66 -5.66 9.32 -6 10 C-6.66 10 -7.32 10 -8 10 C-7.67 7.69 -7.34 5.38 -7 3 C-4.525 3.99 -4.525 3.99 -2 5 C-1.855625 4.360625 -1.71125 3.72125 -1.5625 3.0625 C-1 1 -1 1 0 0 Z " fill="#3E7296" transform="translate(672,188)"/>
<path d="M0 0 C0.66 0.33 1.32 0.66 2 1 C1.67 2.98 1.34 4.96 1 7 C0.01 7.33 -0.98 7.66 -2 8 C-2 7.34 -2 6.68 -2 6 C-2.66 5.67 -3.32 5.34 -4 5 C-2.25 1.125 -2.25 1.125 0 0 Z " fill="#060717" transform="translate(629,190)"/>
<path d="M0 0 C1.32 0.66 2.64 1.32 4 2 C3.34 2 2.68 2 2 2 C1.34 3.98 0.68 5.96 0 8 C-1.9375 7.25 -1.9375 7.25 -4 6 C-4.75 3.875 -4.75 3.875 -5 2 C-3.68 2 -2.36 2 -1 2 C-0.67 1.34 -0.34 0.68 0 0 Z " fill="#20384F" transform="translate(726,186)"/>
<path d="M0 0 C1.2065625 0.0309375 1.2065625 0.0309375 2.4375 0.0625 C1.798125 0.495625 1.15875 0.92875 0.5 1.375 C-1.82996003 2.97489177 -1.82996003 2.97489177 -2.5625 6.0625 C-4.625 6.75 -4.625 6.75 -6.5625 7.0625 C-6.5625 9.3725 -6.5625 11.6825 -6.5625 14.0625 C-7.2225 13.4025 -7.8825 12.7425 -8.5625 12.0625 C-8.1875 8.9375 -8.1875 8.9375 -7.5625 6.0625 C-6.9025 6.0625 -6.2425 6.0625 -5.5625 6.0625 C-5.253125 5.258125 -4.94375 4.45375 -4.625 3.625 C-3.15384615 0.07692308 -3.15384615 0.07692308 0 0 Z " fill="#283F61" transform="translate(621.5625,183.9375)"/>
<path d="M0 0 C-0.99 0.495 -0.99 0.495 -2 1 C-2 1.66 -2 2.32 -2 3 C-6.455 2.01 -6.455 2.01 -11 1 C-7.46971544 -2.53028456 -4.14884561 -2.61223613 0 0 Z " fill="#15161A" transform="translate(532,186)"/>
<path d="M0 0 C2.64 0.33 5.28 0.66 8 1 C8 1.99 8 2.98 8 4 C7.01 4.66 6.02 5.32 5 6 C4.67 5.34 4.34 4.68 4 4 C1.97536745 3.34786708 1.97536745 3.34786708 0 3 C0 2.01 0 1.02 0 0 Z " fill="#0B0B0C" transform="translate(425,185)"/>
<path d="M0 0 C2.64 0.33 5.28 0.66 8 1 C8 1.66 8 2.32 8 3 C7.01 3 6.02 3 5 3 C4.67 3.66 4.34 4.32 4 5 C4.66 5 5.32 5 6 5 C6 5.66 6 6.32 6 7 C4.68 7 3.36 7 2 7 C1.34 4.69 0.68 2.38 0 0 Z " fill="#061013" transform="translate(75,119)"/>
<path d="M0 0 C0 1.98 0 3.96 0 6 C-0.99 5.67 -1.98 5.34 -3 5 C-2.67 5.99 -2.34 6.98 -2 8 C-2.66 8 -3.32 8 -4 8 C-4.33 7.01 -4.66 6.02 -5 5 C-5.33 4.67 -5.66 4.34 -6 4 C-6 3.01 -6 2.02 -6 1 C-3 0 -3 0 0 0 Z " fill="#0F1519" transform="translate(310,105)"/>
<path d="M0 0 C4.95 0 9.9 0 15 0 C15 0.33 15 0.66 15 1 C11.7 1 8.4 1 5 1 C5 1.66 5 2.32 5 3 C3.02 3.33 1.04 3.66 -1 4 C-0.67 2.68 -0.34 1.36 0 0 Z " fill="#15585D" transform="translate(69,91)"/>
<path d="M0 0 C0.99 0.33 1.98 0.66 3 1 C3.33 3.31 3.66 5.62 4 8 C2.35 8 0.7 8 -1 8 C-1.125 2.25 -1.125 2.25 0 0 Z " fill="#0C0C0E" transform="translate(728,188)"/>
<path d="M0 0 C2.1464753 0.11344376 4.29220592 0.24106345 6.4375 0.375 C8.22994141 0.47941406 8.22994141 0.47941406 10.05859375 0.5859375 C11.02925781 0.72257813 11.99992188 0.85921875 13 1 C13.33 1.66 13.66 2.32 14 3 C12.22992286 3.08114106 10.45877902 3.13925505 8.6875 3.1875 C7.70136719 3.22230469 6.71523438 3.25710937 5.69921875 3.29296875 C3 3 3 3 1.14453125 1.48828125 C0.76683594 0.99714844 0.38914062 0.50601563 0 0 Z " fill="#141B1F" transform="translate(667,151)"/>
<path d="M0 0 C0.33 0 0.66 0 1 0 C1 2.97 1 5.94 1 9 C2.32 9.33 3.64 9.66 5 10 C4.01 10.66 3.02 11.32 2 12 C2 12.99 2 13.98 2 15 C1.34 15 0.68 15 0 15 C-1.5111995 9.96266834 -0.64599773 5.11828973 0 0 Z " fill="#373A5A" transform="translate(773,112)"/>
<path d="M0 0 C1.65 0.33 3.3 0.66 5 1 C4.34 3.31 3.68 5.62 3 8 C1 7 1 7 -0.1875 4.5625 C-1 2 -1 2 0 0 Z " fill="#223133" transform="translate(178,100)"/>
<path d="M0 0 C-0.99 0.33 -1.98 0.66 -3 1 C-3 1.66 -3 2.32 -3 3 C-5.64 3.33 -8.28 3.66 -11 4 C-11 3.34 -11 2.68 -11 2 C-7.06425135 -0.62383243 -4.54354105 -1.51451368 0 0 Z " fill="#121A1E" transform="translate(678,93)"/>
<path d="M0 0 C1.65 0.33 3.3 0.66 5 1 C5 1.66 5 2.32 5 3 C4.01 3.33 3.02 3.66 2 4 C1.67 4.66 1.34 5.32 1 6 C1.99 6.33 2.98 6.66 4 7 C2.35 7.33 0.7 7.66 -1 8 C-1 5.16032769 -0.59732819 2.76264289 0 0 Z " fill="#494960" transform="translate(523,197)"/>
<path d="M0 0 C2.375 0.25 2.375 0.25 5 1 C6.3125 3.0625 6.3125 3.0625 7 5 C5.02 5.33 3.04 5.66 1 6 C-0.0625 4.125 -0.0625 4.125 -1 2 C-0.67 1.34 -0.34 0.68 0 0 Z " fill="#0F1B1D" transform="translate(182,103)"/>
<path d="M0 0 C1.32 0.66 2.64 1.32 4 2 C4 2.99 4 3.98 4 5 C3.34 5 2.68 5 2 5 C1.67 4.34 1.34 3.68 1 3 C0.01 4.98 -0.98 6.96 -2 9 C-2.66 9 -3.32 9 -4 9 C-2.25 2.25 -2.25 2.25 0 0 Z " fill="#05060C" transform="translate(437,92)"/>
<path d="M0 0 C3.65316671 1.24976756 4.78065836 1.67098753 7 5 C6.443125 4.79375 5.88625 4.5875 5.3125 4.375 C2.340462 3.89304789 0.68020059 4.73434972 -2 6 C-2.33 5.34 -2.66 4.68 -3 4 C-2.34 3.67 -1.68 3.34 -1 3 C-0.67 2.01 -0.34 1.02 0 0 Z " fill="#080E16" transform="translate(93,94)"/>
<path d="M0 0 C0.66 0 1.32 0 2 0 C2 0.66 2 1.32 2 2 C3.65 2.33 5.3 2.66 7 3 C7 3.66 7 4.32 7 5 C2.99799622 6.60080151 -0.04556236 5.29279692 -4 4 C-3.34 3.67 -2.68 3.34 -2 3 C-1.01 3.33 -0.02 3.66 1 4 C0.67 2.68 0.34 1.36 0 0 Z " fill="#3A3035" transform="translate(619,198)"/>
<path d="M0 0 C0.99 0 1.98 0 3 0 C3 0.66 3 1.32 3 2 C3.66 2.33 4.32 2.66 5 3 C1.66666667 4.33333333 -1.66666667 5.66666667 -5 7 C-4.67 5.68 -4.34 4.36 -4 3 C-3.01 3 -2.02 3 -1 3 C-0.67 2.01 -0.34 1.02 0 0 Z " fill="#080A17" transform="translate(297,188)"/>
<path d="M0 0 C1.65 0.33 3.3 0.66 5 1 C5.66 3.31 6.32 5.62 7 8 C6.34 8 5.68 8 5 8 C4.67 7.01 4.34 6.02 4 5 C1.03 4.505 1.03 4.505 -2 4 C-1.34 2.68 -0.68 1.36 0 0 Z " fill="#0E394A" transform="translate(436,134)"/>
<path d="M0 0 C2.31 0 4.62 0 7 0 C7.33 0.66 7.66 1.32 8 2 C7.34 2 6.68 2 6 2 C5.67 2.99 5.34 3.98 5 5 C2.525 4.01 2.525 4.01 0 3 C0 2.01 0 1.02 0 0 Z " fill="#181F21" transform="translate(554,126)"/>
<path d="M0 0 C0 0.99 0 1.98 0 3 C-2.64 3 -5.28 3 -8 3 C-8.33 2.34 -8.66 1.68 -9 1 C-2.25 -1.125 -2.25 -1.125 0 0 Z " fill="#08080D" transform="translate(727,200)"/>
<path d="M0 0 C0.625 1.8125 0.625 1.8125 1 4 C0.01 5.485 0.01 5.485 -1 7 C-2.32 6.67 -3.64 6.34 -5 6 C-4.75 4.125 -4.75 4.125 -4 2 C-1.9375 0.75 -1.9375 0.75 0 0 Z " fill="#080819" transform="translate(529,198)"/>
<path d="M0 0 C2.97 0.495 2.97 0.495 6 1 C6.33 2.32 6.66 3.64 7 5 C4.37886292 5 2.49064888 4.68707555 0 4 C0 2.68 0 1.36 0 0 Z " fill="#03060B" transform="translate(472,192)"/>
<path d="M0 0 C2.0625 0.4375 2.0625 0.4375 4 1 C3.67 2.32 3.34 3.64 3 5 C2.34 5 1.68 5 1 5 C1 6.32 1 7.64 1 9 C0.34 9 -0.32 9 -1 9 C-1 7.35 -1 5.7 -1 4 C-0.34 4 0.32 4 1 4 C1 3.34 1 2.68 1 2 C0.34 1.67 -0.32 1.34 -1 1 C-0.67 0.67 -0.34 0.34 0 0 Z " fill="#33435A" transform="translate(421,184)"/>
<path d="M0 0 C0.66 0.66 1.32 1.32 2 2 C1.625 4.125 1.625 4.125 1 6 C-2.375 6.125 -2.375 6.125 -6 6 C-6.66 5.34 -7.32 4.68 -8 4 C-4.71303767 3.20046862 -3.28976808 2.90341064 0 4 C0 2.68 0 1.36 0 0 Z " fill="#091013" transform="translate(86,150)"/>
<path d="M0 0 C0.33 0 0.66 0 1 0 C1 2.97 1 5.94 1 9 C-0.65 9.33 -2.3 9.66 -4 10 C-4.33 9.01 -4.66 8.02 -5 7 C-3.68 7.33 -2.36 7.66 -1 8 C-0.67 5.36 -0.34 2.72 0 0 Z " fill="#124A4B" transform="translate(201,146)"/>
<path d="M0 0 C0.33 0.99 0.66 1.98 1 3 C2.32 3 3.64 3 5 3 C5 3.66 5 4.32 5 5 C2.08517222 5.80967438 0.53886783 6.21845993 -2.3125 5.0625 C-2.869375 4.711875 -3.42625 4.36125 -4 4 C-4 3.34 -4 2.68 -4 2 C-2.68 1.34 -1.36 0.68 0 0 Z " fill="#3C484C" transform="translate(687,149)"/>
<path d="M0 0 C0.99 0.33 1.98 0.66 3 1 C3.99 1 4.98 1 6 1 C5.01 2.485 5.01 2.485 4 4 C4 4.66 4 5.32 4 6 C2.68 6.33 1.36 6.66 0 7 C-1.125 2.25 -1.125 2.25 0 0 Z " fill="#132428" transform="translate(774,146)"/>
<path d="M0 0 C0.66 0 1.32 0 2 0 C1.67 1.65 1.34 3.3 1 5 C-1.64 5 -4.28 5 -7 5 C-6.67 4.01 -6.34 3.02 -6 2 C-3.03 2.495 -3.03 2.495 0 3 C0 2.01 0 1.02 0 0 Z " fill="#0E0C24" transform="translate(342,130)"/>
<path d="M0 0 C0.99 0.33 1.98 0.66 3 1 C0.25 5.875 0.25 5.875 -2 7 C-2.66 6.67 -3.32 6.34 -4 6 C-2.84826645 3.53199953 -1.95216435 1.95216435 0 0 Z " fill="#151D1F" transform="translate(577,117)"/>
<path d="M0 0 C-1.25 2.5 -1.25 2.5 -3 5 C-4.32 5 -5.64 5 -7 5 C-7 4.34 -7 3.68 -7 3 C-6.34 2.67 -5.68 2.34 -5 2 C-5.99 1.34 -6.98 0.68 -8 0 C-4.71023192 -1.09658936 -3.28696233 -0.79953138 0 0 Z " fill="#2E4875" transform="translate(682,91)"/>
<path d="M0 0 C1.32 0.66 2.64 1.32 4 2 C3.1875 3.9375 3.1875 3.9375 2 6 C1.01 6.33 0.02 6.66 -1 7 C-1.66 6.34 -2.32 5.68 -3 5 C-2.01 3.35 -1.02 1.7 0 0 Z " fill="#121122" transform="translate(677,196)"/>
<path d="M0 0 C0.66 0 1.32 0 2 0 C2.125 6.75 2.125 6.75 1 9 C0.34 9 -0.32 9 -1 9 C-1.09765625 2.84765625 -1.09765625 2.84765625 -1 1 C-0.67 0.67 -0.34 0.34 0 0 Z " fill="#06080A" transform="translate(244,187)"/>
<path d="M0 0 C1.79244141 0.01740234 1.79244141 0.01740234 3.62109375 0.03515625 C5.41740234 0.04869141 5.41740234 0.04869141 7.25 0.0625 C8.17683594 0.07410156 9.10367188 0.08570313 10.05859375 0.09765625 C6.69191224 1.86806635 3.88650342 2.77866378 0.05859375 3.09765625 C-2.31640625 2.16015625 -2.31640625 2.16015625 -3.94140625 1.09765625 C-2.94140625 0.09765625 -2.94140625 0.09765625 0 0 Z " fill="#090F13" transform="translate(789.94140625,148.90234375)"/>
<path d="M0 0 C0.99 0.33 1.98 0.66 3 1 C3.33 1.99 3.66 2.98 4 4 C2.02 4.66 0.04 5.32 -2 6 C-1.125 1.125 -1.125 1.125 0 0 Z " fill="#0A0F13" transform="translate(660,146)"/>
<path d="M0 0 C5.78461538 4.43076923 5.78461538 4.43076923 6.875 7.3125 C6.936875 8.1478125 6.936875 8.1478125 7 9 C4.25362183 8.62118922 3.19950942 8.22167713 1.3125 6.125 C0 4 0 4 -1 1 C-0.67 0.67 -0.34 0.34 0 0 Z " fill="#3A4D50" transform="translate(190,119)"/>
<path d="M0 0 C-3.08888522 2.05925681 -3.70935927 2.2390374 -7.1875 2.125 C-9.0746875 2.063125 -9.0746875 2.063125 -11 2 C-11 1.34 -11 0.68 -11 0 C-7.01803543 -1.05404945 -4.01804691 -0.84098656 0 0 Z " fill="#424548" transform="translate(811,98)"/>
<path d="M0 0 C1.32 0 2.64 0 4 0 C4.66 1.65 5.32 3.3 6 5 C5.34 5 4.68 5 4 5 C4 5.66 4 6.32 4 7 C3.34 6.67 2.68 6.34 2 6 C2.33 5.34 2.66 4.68 3 4 C2.34 4 1.68 4 1 4 C0.67 2.68 0.34 1.36 0 0 Z " fill="#3B5F76" transform="translate(97,196)"/>
<path d="M0 0 C0.33 0 0.66 0 1 0 C1 5.28 1 10.56 1 16 C0.67 15.01 0.34 14.02 0 13 C-0.66 13 -1.32 13 -2 13 C-2 12.01 -2 11.02 -2 10 C-1.34 10 -0.68 10 0 10 C0 6.7 0 3.4 0 0 Z " fill="#102630" transform="translate(294,123)"/>
<path d="M0 0 C1.64767247 0.28109113 3.29313145 0.57518526 4.9375 0.875 C5.85402344 1.03742188 6.77054687 1.19984375 7.71484375 1.3671875 C8.46894531 1.57601562 9.22304687 1.78484375 10 2 C10.33 2.66 10.66 3.32 11 4 C9.54119891 3.85892253 8.08296449 3.71197585 6.625 3.5625 C5.40683594 3.44068359 5.40683594 3.44068359 4.1640625 3.31640625 C2 3 2 3 0 2 C0 1.34 0 0.68 0 0 Z " fill="#070D10" transform="translate(65,121)"/>
<path d="M0 0 C0.99 0 1.98 0 3 0 C3 2.31 3 4.62 3 7 C2.01 7 1.02 7 0 7 C0 4.69 0 2.38 0 0 Z " fill="#060C0D" transform="translate(297,196)"/>
<path d="M0 0 C0.33 0.66 0.66 1.32 1 2 C1.66 2 2.32 2 3 2 C3 3.98 3 5.96 3 8 C2.01 8 1.02 8 0 8 C-0.38063221 5.6739143 -0.71269945 3.33944736 -1 1 C-0.67 0.67 -0.34 0.34 0 0 Z " fill="#08090E" transform="translate(195,195)"/>
<path d="M0 0 C0 3.10551666 -0.5393715 4.35261084 -2 7 C-2.66 7 -3.32 7 -4 7 C-4.33 5.02 -4.66 3.04 -5 1 C-3.35 0.67 -1.7 0.34 0 0 Z " fill="#2B3E69" transform="translate(534,195)"/>
<path d="M0 0 C1.9375 0.3125 1.9375 0.3125 4 1 C4.33 1.99 4.66 2.98 5 4 C4.34 4 3.68 4 3 4 C2.67 5.65 2.34 7.3 2 9 C1.67 9 1.34 9 1 9 C1.020625 8.071875 1.04125 7.14375 1.0625 6.1875 C1.15769604 2.97713989 1.15769604 2.97713989 0 0 Z " fill="#2E4A38" transform="translate(575,186)"/>
<path d="M0 0 C0.66 0.33 1.32 0.66 2 1 C1.67 2.98 1.34 4.96 1 7 C1.66 7.33 2.32 7.66 3 8 C0.625 7.6875 0.625 7.6875 -2 7 C-2.66 6.01 -3.32 5.02 -4 4 C-2.68 3.34 -1.36 2.68 0 2 C0 1.34 0 0.68 0 0 Z " fill="#070D10" transform="translate(65,146)"/>
<path d="M0 0 C0.99 0.33 1.98 0.66 3 1 C2.43628586 4.26954202 1.50037734 5.82575883 -1 8 C-1.93065133 5.39417629 -2.14917407 4.35801776 -1.0625 1.75 C-0.711875 1.1725 -0.36125 0.595 0 0 Z " fill="#112D32" transform="translate(444,113)"/>
<path d="M0 0 C2 0.25 2 0.25 4 1 C4.33 1.99 4.66 2.98 5 4 C3.35 4.33 1.7 4.66 0 5 C-0.5625 3.0625 -0.5625 3.0625 -1 1 C-0.67 0.67 -0.34 0.34 0 0 Z " fill="#1E242E" transform="translate(208,105)"/>
<path d="M0 0 C2 0 2 0 4 1.9375 C4.99 2.9584375 4.99 2.9584375 6 4 C6.66 4.33 7.32 4.66 8 5 C8 5.66 8 6.32 8 7 C4.21388773 6.45912682 2.44599233 4.88277668 0 2 C0 1.34 0 0.68 0 0 Z " fill="#030B11" transform="translate(655,116)"/>
<path d="M0 0 C-0.3125 2.375 -0.3125 2.375 -1 5 C-1.99 5.66 -2.98 6.32 -4 7 C-4 5.02 -4 3.04 -4 1 C-2 0 -2 0 0 0 Z " fill="#11191C" transform="translate(299,105)"/>
<path d="M0 0 C2.8125 -0.3125 2.8125 -0.3125 6 0 C7.9375 2.375 7.9375 2.375 9 5 C8.67 5.66 8.34 6.32 8 7 C7.34 7 6.68 7 6 7 C5.938125 6.38125 5.87625 5.7625 5.8125 5.125 C5.171081 2.72238859 5.171081 2.72238859 2.4375 1.75 C1.633125 1.5025 0.82875 1.255 0 1 C0 0.67 0 0.34 0 0 Z " fill="#172534" transform="translate(567,99)"/>
<path d="M0 0 C0.33 0 0.66 0 1 0 C1 1.98 1 3.96 1 6 C-1.31 6 -3.62 6 -6 6 C-4 4 -2 2 0 0 Z " fill="#0D1012" transform="translate(817,93)"/>
<path d="M0 0 C0.66 0.66 1.32 1.32 2 2 C1.67 2.99 1.34 3.98 1 5 C0.01 5 -0.98 5 -2 5 C-2.33 5.99 -2.66 6.98 -3 8 C-3.5534764 5.92446352 -4 4.15634036 -4 2 C-2.68 2 -1.36 2 0 2 C0 1.34 0 0.68 0 0 Z " fill="#181D31" transform="translate(179,93)"/>
<path d="M0 0 C1.65 0 3.3 0 5 0 C5.66 1.32 6.32 2.64 7 4 C4.69 3.67 2.38 3.34 0 3 C0 2.01 0 1.02 0 0 Z " fill="#163344" transform="translate(567,92)"/>
<path d="M0 0 C0.66 0.66 1.32 1.32 2 2 C4.06874034 2.6425235 4.06874034 2.6425235 6 3 C5.67 3.99 5.34 4.98 5 6 C3.68 6 2.36 6 1 6 C0.67 4.02 0.34 2.04 0 0 Z " fill="#48486F" transform="translate(241,198)"/>
<path d="M0 0 C1.32 0.66 2.64 1.32 4 2 C2.68 3.32 1.36 4.64 0 6 C-0.66 5.67 -1.32 5.34 -2 5 C-1.34 3.35 -0.68 1.7 0 0 Z " fill="#343A4C" transform="translate(426,196)"/>
<path d="M0 0 C2.97 0.495 2.97 0.495 6 1 C5.67 1.99 5.34 2.98 5 4 C2.9375 4.6875 2.9375 4.6875 1 5 C0.67 3.35 0.34 1.7 0 0 Z " fill="#060720" transform="translate(102,188)"/>
<path d="M0 0 C1.32 0.66 2.64 1.32 4 2 C4 2.66 4 3.32 4 4 C1.69 4 -0.62 4 -3 4 C-3 3.34 -3 2.68 -3 2 C-2.01 1.34 -1.02 0.68 0 0 Z " fill="#0E1419" transform="translate(539,151)"/>
<path d="M0 0 C-0.66 1.32 -1.32 2.64 -2 4 C-3.32 3.67 -4.64 3.34 -6 3 C-6 2.01 -6 1.02 -6 0 C-3 -1 -3 -1 0 0 Z " fill="#121E21" transform="translate(661,145)"/>
<path d="M0 0 C0.6875 1.625 0.6875 1.625 1 4 C-0.4375 7.25 -0.4375 7.25 -2 10 C-2.33 10 -2.66 10 -3 10 C-3 8.35 -3 6.7 -3 5 C-2.34 5 -1.68 5 -1 5 C-1.33 4.01 -1.66 3.02 -2 2 C-1.34 1.34 -0.68 0.68 0 0 Z " fill="#052C2E" transform="translate(427,115)"/>
<path d="M0 0 C0.33 0 0.66 0 1 0 C1.76173392 4.3164922 2.16063604 7.74433453 1 12 C-0.5625 10.25 -0.5625 10.25 -2 8 C-1.75 6 -1.75 6 -1 4 C-0.814375 3.2575 -0.62875 2.515 -0.4375 1.75 C-0.293125 1.1725 -0.14875 0.595 0 0 Z " fill="#023931" transform="translate(337,120)"/>
<path d="M0 0 C0.99 0 1.98 0 3 0 C3 0.66 3 1.32 3 2 C4.32 2 5.64 2 7 2 C7 2.66 7 3.32 7 4 C5.02 4.33 3.04 4.66 1 5 C0.67 3.35 0.34 1.7 0 0 Z " fill="#223043" transform="translate(654,100)"/>
<path d="M0 0 C0.99 0.66 1.98 1.32 3 2 C3 2.99 3 3.98 3 5 C2.01 5.33 1.02 5.66 0 6 C-0.66 5.67 -1.32 5.34 -2 5 C-2 4.01 -2 3.02 -2 2 C-1.34 2 -0.68 2 0 2 C0 1.34 0 0.68 0 0 Z " fill="#090C12" transform="translate(304,99)"/>
<path d="M0 0 C0.99 0 1.98 0 3 0 C3 2.31 3 4.62 3 7 C2.01 7 1.02 7 0 7 C0 4.69 0 2.38 0 0 Z " fill="#06080B" transform="translate(422,196)"/>
<path d="M0 0 C2.475 0.495 2.475 0.495 5 1 C5.33 1.99 5.66 2.98 6 4 C5.01 4.495 5.01 4.495 4 5 C4 4.34 4 3.68 4 3 C3.34 3 2.68 3 2 3 C2 3.66 2 4.32 2 5 C1.34 5 0.68 5 0 5 C0 3.33333333 0 1.66666667 0 0 Z " fill="#2E6677" transform="translate(425,188)"/>
<path d="M0 0 C0.66 0.33 1.32 0.66 2 1 C2.625 4.0625 2.625 4.0625 3 7 C1.68 7 0.36 7 -1 7 C-0.67 4.69 -0.34 2.38 0 0 Z " fill="#06060C" transform="translate(287,183)"/>
<path d="M0 0 C0.99 0 1.98 0 3 0 C3.1875 2.375 3.1875 2.375 3 5 C2.01 5.66 1.02 6.32 0 7 C0 4.69 0 2.38 0 0 Z " fill="#121315" transform="translate(153,185)"/>
<path d="M0 0 C1.32 0 2.64 0 4 0 C3.67 1.65 3.34 3.3 3 5 C1.68 5 0.36 5 -1 5 C-0.67 3.35 -0.34 1.7 0 0 Z " fill="#817383" transform="translate(147,183)"/>
<path d="M0 0 C1.09658936 3.28976808 0.79953138 4.71303767 0 8 C-1.32 7.67 -2.64 7.34 -4 7 C-4 5 -4 5 -2.5625 3.5 C-2.046875 3.005 -1.53125 2.51 -1 2 C-0.67 1.34 -0.34 0.68 0 0 Z " fill="#031C3B" transform="translate(701,136)"/>
<path d="M0 0 C0.66 0 1.32 0 2 0 C2.1875 2.8125 2.1875 2.8125 2 6 C1.01 6.99 0.02 7.98 -1 9 C-0.67 6.03 -0.34 3.06 0 0 Z " fill="#051517" transform="translate(694,135)"/>
<path d="M0 0 C2.31 0 4.62 0 7 0 C6.34 1.32 5.68 2.64 5 4 C3.0625 3.6875 3.0625 3.6875 1 3 C0.67 2.01 0.34 1.02 0 0 Z " fill="#0F2A2D" transform="translate(692,132)"/>
<path d="M0 0 C0.33 0.99 0.66 1.98 1 3 C3.01508358 3.73323796 3.01508358 3.73323796 5 4 C2 6 2 6 -0.1875 5.625 C-0.785625 5.41875 -1.38375 5.2125 -2 5 C-1.34 3.35 -0.68 1.7 0 0 Z " fill="#021D3C" transform="translate(542,128)"/>
<path d="M0 0 C-0.33 0.66 -0.66 1.32 -1 2 C-3.32156597 2.40729228 -5.6568787 2.74438677 -8 3 C-8 2.01 -8 1.02 -8 0 C-5.13822943 -1.43088528 -3.06624227 -0.59991697 0 0 Z " fill="#212537" transform="translate(573,127)"/>
<path d="M0 0 C2.62187494 1.04874998 3.79371361 1.64931313 5.25 4.125 C5.4975 4.74375 5.745 5.3625 6 6 C4.125 5.8125 4.125 5.8125 2 5 C0.75 2.4375 0.75 2.4375 0 0 Z " fill="#070B26" transform="translate(316,126)"/>
<path d="M0 0 C0.99 0 1.98 0 3 0 C2.5359375 1.1446875 2.5359375 1.1446875 2.0625 2.3125 C1.32106407 4.18789677 0.63771783 6.08684652 0 8 C-0.66 7.67 -1.32 7.34 -2 7 C-1.34 4.69 -0.68 2.38 0 0 Z " fill="#182845" transform="translate(429,107)"/>
<path d="M0 0 C1.32 0 2.64 0 4 0 C4 1.65 4 3.3 4 5 C3.01 5 2.02 5 1 5 C0.67 3.35 0.34 1.7 0 0 Z " fill="#06090D" transform="translate(348,198)"/>
<path d="M0 0 C0.99 0.33 1.98 0.66 3 1 C2.67 2.98 2.34 4.96 2 7 C1.01 7 0.02 7 -1 7 C-0.67 4.69 -0.34 2.38 0 0 Z " fill="#071709" transform="translate(143,196)"/>
<path d="M0 0 C2.31 0.33 4.62 0.66 7 1 C5.68 1.99 4.36 2.98 3 4 C2.01 3.34 1.02 2.68 0 2 C0 1.34 0 0.68 0 0 Z " fill="#345B5C" transform="translate(88,152)"/>
<path d="M0 0 C1.9375 0.6875 1.9375 0.6875 4 2 C4.75 4.625 4.75 4.625 5 7 C2 5 2 5 0 3 C0 2.01 0 1.02 0 0 Z " fill="#034244" transform="translate(332,147)"/>
<path d="M0 0 C0.66 0.33 1.32 0.66 2 1 C1.67 2.65 1.34 4.3 1 6 C0.01 6 -0.98 6 -2 6 C-2.33 5.01 -2.66 4.02 -3 3 C-2.01 2.67 -1.02 2.34 0 2 C0 1.34 0 0.68 0 0 Z " fill="#161930" transform="translate(64,144)"/>
<path d="M0 0 C0.66 0 1.32 0 2 0 C2.33 1.32 2.66 2.64 3 4 C3.66 4 4.32 4 5 4 C4.67 5.32 4.34 6.64 4 8 C3.34 7.67 2.68 7.34 2 7 C1.26924352 4.6859378 0.59861742 2.35171131 0 0 Z " fill="#28342E" transform="translate(432,139)"/>
<path d="M0 0 C5.57142857 5.14285714 5.57142857 5.14285714 6 9 C0.42857143 3.85714286 0.42857143 3.85714286 0 0 Z " fill="#05090D" transform="translate(325,136)"/>
<path d="M0 0 C2.475 0.99 2.475 0.99 5 2 C4.34 3.32 3.68 4.64 3 6 C2.01 5.34 1.02 4.68 0 4 C0 2.68 0 1.36 0 0 Z " fill="#262D36" transform="translate(321,132)"/>
<path d="M0 0 C3.48539917 0.64544429 6.02819057 2.10134397 9 4 C8.67 4.66 8.34 5.32 8 6 C4.942048 4.26440562 2.36620011 2.61527381 0 0 Z " fill="#0B1116" transform="translate(316,125)"/>
<path d="M0 0 C0.66 0.33 1.32 0.66 2 1 C2 1.66 2 2.32 2 3 C2.99 3.33 3.98 3.66 5 4 C4 5 4 5 1.4375 5.0625 C0.2309375 5.0315625 0.2309375 5.0315625 -1 5 C-0.67 3.35 -0.34 1.7 0 0 Z " fill="#141B1D" transform="translate(437,94)"/>
<path d="M0 0 C0.99 0 1.98 0 3 0 C3.625 1.875 3.625 1.875 4 4 C3.34 4.66 2.68 5.32 2 6 C2 5.34 2 4.68 2 4 C1.01 3.67 0.02 3.34 -1 3 C-0.67 2.01 -0.34 1.02 0 0 Z " fill="#0D2027" transform="translate(218,94)"/>
<path d="M0 0 C0.66 0 1.32 0 2 0 C1.67 1.32 1.34 2.64 1 4 C0.67 2.68 0.34 1.36 0 0 Z " fill="#2D2D62" transform="translate(763,196)"/>
<path d="M0 0 C0.33 0 0.66 0 1 0 C1 1.65 1 3.3 1 5 C0.34 3.68 -0.32 2.36 -1 1 C-0.67 0.67 -0.34 0.34 0 0 Z " fill="#555555" transform="translate(467,196)"/>
<path d="M0 0 C1.65 0 3.3 0 5 0 C5 0.33 5 0.66 5 1 C3.35 1 1.7 1 0 1 C0 0.67 0 0.34 0 0 Z " fill="#3399DD" transform="translate(337,91)"/>
<path d="M0 0 C3 1 3 1 3 1 Z " fill="#0000AA" transform="translate(766,204)"/>
<path d="" fill="#AAAAAA" transform="translate(0,0)"/>
<path d="M0 0 C2 1 2 1 2 1 Z " fill="#FFFFFF" transform="translate(198,127)"/>
<path d="" fill="#00FFFF" transform="translate(0,0)"/>
<path d="" fill="#0000FF" transform="translate(0,0)"/>
<path d="" fill="#FFFFFF" transform="translate(0,0)"/>
<path d="" fill="#FFFFFF" transform="translate(0,0)"/>
</svg>
